<svg width="267" height="267" viewBox="0 0 267 267" fill="none" xmlns="http://www.w3.org/2000/svg">
<circle cx="133.5" cy="133.5" r="133.5" fill="#EBECF0"/>
<path d="M262 133.5C262 202.794 207.151 259.278 138.5 261.905V261.623V261.158V260.69V260.22V259.747V259.272V258.794V258.314V257.831V257.346V256.858V256.368V255.876V255.381V254.884V254.384V253.882V253.378V252.871V252.362V251.851V251.338V250.822V250.304V249.783V249.261V248.736V248.209V247.68V247.148V246.615V246.079V245.542V245.002V244.46V243.915V243.369V242.821V242.271V241.718V241.164V240.608V240.049V239.489V238.926V238.362V237.796V237.228V236.658V236.086V235.512V234.936V234.359V233.779V233.198V232.615V232.03V231.444V230.855V230.265V229.673V229.08V228.484V227.887V227.288V226.688V226.086V225.482V224.877V224.27V223.661V223.051V222.44V221.826V221.211V220.595V219.977V219.358V218.737V218.115V217.491V216.865V216.239V215.611V214.981V214.35V213.718V213.084V212.449V211.813V211.175V210.536V209.896V209.254V208.611V207.967V207.322V206.675V206.028V205.379V204.729V204.077V203.425V202.771V202.116V201.46V200.803V200.145V199.486V198.826V198.165V197.503V196.839V196.175V195.51V194.844V194.176V193.508V192.839V192.169V191.498V190.827V190.154V189.48V188.806V188.131V187.455V186.778V186.1V185.422V184.743V184.063V183.382V182.701V182.019V181.336V180.652V179.968V179.283V178.598V177.912V177.225V176.538V175.85V175.162V174.473V173.783V173.093V172.403V171.712V171.02V170.328V169.636V168.943V168.25V167.556V166.862V166.167V165.472V164.777V164.081V163.386V162.689V161.993V161.296V160.599V159.901V159.204V158.506V157.808V157.11V156.411V155.713V155.014V154.315V153.616V152.916V152.217V151.518V150.818V150.119V149.419V148.719V148.02V147.32V146.62V145.921V145.221V144.522V143.822V143.123V142.423V141.724V141.025V140.326V139.627V138.928V138.23V137.531V136.833V136.135V135.438V134.74V134.043V133.346V132.649V131.953V131.257V130.561V129.866V129.171V128.476V127.782V127.088V126.395V125.702V125.009V124.317V123.625V122.934V122.243V121.553V120.864V120.174V119.486V118.798V118.11V117.424V116.737V116.052V115.367V114.682V113.999V113.316V112.633V111.952V111.271V110.591V109.911V109.233V108.555V107.878V107.201V106.526V105.851V105.177V104.505V103.832V103.161V102.491V101.822V101.153V100.486V99.8191V99.1535V98.4889V97.8253V97.1628V96.5012V95.8407V95.1812V94.5228V93.8655V93.2093V92.5542V91.9002V91.2473V90.5956V89.9451V89.2958V88.6476V88.0006V87.3549V86.7104V86.0672V85.4252V84.7845V84.1451V83.5069V82.8702V82.2347V81.6006V80.9678V80.3365V79.7065V79.0779V78.4507V77.825V77.2007V76.5779V75.9565V75.3367V74.7183V74.1014V73.4861V72.8723V72.2601V71.6495V71.0404V70.4329V69.827V69.2228V68.6202V68.0193V67.42V66.8224V66.2266V65.6324V65.0399V64.4492V63.8603V63.2731V62.6877V62.104V61.5222V60.9423V60.3641V59.7878V59.2134V58.6408V58.0702V57.5014V56.9346V56.3697V55.8067V55.2457V54.6867V54.1297V53.5747V53.0217V52.4707V51.9218V51.3749V50.8301V50.2874V49.7468V49.2083V48.672V48.1378V47.6057V47.0759V46.5482V46.0227V45.4994V44.9784V44.4596V43.943V43.4287V42.9167V42.407V41.8997V41.3946V40.8919V40.3915V39.8935V39.3979V38.9047V38.4139V37.9255V37.4396V36.9561V36.475V35.9965V35.5204V35.0469V34.5759V34.1074V33.6414V33.1781V32.7173V32.259V31.8034V31.3505V30.9001V30.4524V30.0074V29.565V29.1253V28.6884V28.2541V27.8226V27.3938V26.9678V26.5446V26.1241V25.7065V25.2916V24.8796V24.4705V24.0642V23.6607V23.2602V22.8625V22.4678V22.076V21.6871V21.3012V20.9183V20.5383V20.1613V19.7874V19.4165V19.0486V18.6837V18.322V17.9633V17.6077V17.2552V16.9058V16.5596V16.2166V15.8767V15.5399V15.2064V14.8761V14.549V14.2251V13.9045V13.5871V13.273V12.9622V12.6548V12.3506V12.0498V11.7523V11.4581V11.1674V10.88V10.5961V10.3155V10.0384V9.76475V9.49454V9.22781V8.96456V8.70481V8.44857V8.19587V7.94671V7.7011V7.45906V7.22061V6.98576V6.75452V6.52691V6.30294V6.08262V5.86597V5.653V5.44373V5.23817V5.09549C207.151 7.72212 262 64.2057 262 133.5Z" stroke="url(#paint0_linear_1028_25762)" stroke-width="10"/>
<circle cx="133.5" cy="133.5" r="123.5" fill="white"/>
<circle cx="133.5" cy="133.5" r="119.5" fill="url(#paint1_radial_1028_25762)"/>
<path d="M95.3693 160.716C91.7557 160.716 88.5341 160.051 85.7045 158.722C82.892 157.392 80.6591 155.56 79.0057 153.224C77.3523 150.889 76.4915 148.213 76.4233 145.196H87.1619C87.2813 147.224 88.1335 148.869 89.7188 150.131C91.304 151.392 93.1875 152.023 95.3693 152.023C97.108 152.023 98.642 151.639 99.9716 150.872C101.318 150.088 102.366 149.006 103.116 147.625C103.884 146.227 104.267 144.625 104.267 142.818C104.267 140.977 103.875 139.358 103.091 137.96C102.324 136.562 101.259 135.472 99.8949 134.688C98.5313 133.903 96.9716 133.503 95.2159 133.486C93.6818 133.486 92.1903 133.801 90.7415 134.432C89.3097 135.062 88.1932 135.923 87.392 137.014L77.5483 135.25L80.0284 107.636H112.04V116.688H89.1562L87.8011 129.804H88.108C89.0284 128.509 90.4176 127.435 92.2756 126.582C94.1335 125.73 96.2131 125.304 98.5142 125.304C101.668 125.304 104.48 126.045 106.952 127.528C109.423 129.011 111.375 131.048 112.807 133.639C114.239 136.213 114.946 139.179 114.929 142.537C114.946 146.065 114.128 149.202 112.474 151.946C110.838 154.673 108.545 156.821 105.597 158.389C102.665 159.94 99.2557 160.716 95.3693 160.716ZM143.182 161.151C138.784 161.134 135 160.051 131.83 157.903C128.676 155.756 126.247 152.645 124.543 148.571C122.855 144.497 122.02 139.597 122.037 133.869C122.037 128.159 122.881 123.293 124.568 119.27C126.273 115.247 128.702 112.187 131.855 110.091C135.026 107.977 138.801 106.92 143.182 106.92C147.563 106.92 151.33 107.977 154.483 110.091C157.653 112.205 160.091 115.273 161.795 119.295C163.5 123.301 164.344 128.159 164.327 133.869C164.327 139.614 163.474 144.523 161.77 148.597C160.082 152.67 157.662 155.781 154.509 157.929C151.355 160.077 147.58 161.151 143.182 161.151ZM143.182 151.972C146.182 151.972 148.577 150.463 150.366 147.446C152.156 144.429 153.043 139.903 153.026 133.869C153.026 129.898 152.616 126.591 151.798 123.949C150.997 121.307 149.855 119.321 148.372 117.991C146.906 116.662 145.176 115.997 143.182 115.997C140.199 115.997 137.813 117.489 136.023 120.472C134.233 123.455 133.33 127.92 133.312 133.869C133.312 137.892 133.713 141.25 134.514 143.943C135.332 146.619 136.483 148.631 137.966 149.977C139.449 151.307 141.188 151.972 143.182 151.972ZM183.516 155.364V154.06C183.516 153.07 183.725 152.16 184.143 151.331C184.57 150.494 185.186 149.826 185.991 149.327C186.804 148.82 187.794 148.566 188.961 148.566C190.144 148.566 191.138 148.816 191.943 149.315C192.756 149.814 193.368 150.482 193.778 151.319C194.197 152.148 194.406 153.062 194.406 154.06V155.364C194.406 156.354 194.197 157.267 193.778 158.104C193.36 158.933 192.744 159.598 191.931 160.097C191.118 160.604 190.128 160.857 188.961 160.857C187.778 160.857 186.784 160.604 185.979 160.097C185.174 159.598 184.562 158.933 184.143 158.104C183.725 157.267 183.516 156.354 183.516 155.364ZM187.029 154.06V155.364C187.029 155.935 187.166 156.474 187.44 156.982C187.721 157.489 188.228 157.742 188.961 157.742C189.693 157.742 190.192 157.493 190.458 156.994C190.732 156.495 190.869 155.951 190.869 155.364V154.06C190.869 153.472 190.74 152.925 190.482 152.418C190.225 151.911 189.718 151.657 188.961 151.657C188.237 151.657 187.733 151.911 187.452 152.418C187.17 152.925 187.029 153.472 187.029 154.06ZM170.826 141.213V139.909C170.826 138.911 171.039 137.997 171.466 137.168C171.893 136.331 172.508 135.663 173.313 135.164C174.126 134.665 175.108 134.415 176.259 134.415C177.451 134.415 178.449 134.665 179.254 135.164C180.058 135.663 180.67 136.331 181.089 137.168C181.507 137.997 181.717 138.911 181.717 139.909V141.213C181.717 142.211 181.503 143.125 181.077 143.954C180.658 144.783 180.042 145.447 179.229 145.946C178.424 146.437 177.434 146.683 176.259 146.683C175.084 146.683 174.09 146.433 173.277 145.934C172.472 145.427 171.86 144.763 171.442 143.942C171.031 143.113 170.826 142.203 170.826 141.213ZM174.364 139.909V141.213C174.364 141.801 174.5 142.344 174.774 142.843C175.056 143.342 175.551 143.592 176.259 143.592C177 143.592 177.503 143.342 177.768 142.843C178.042 142.344 178.179 141.801 178.179 141.213V139.909C178.179 139.321 178.05 138.774 177.793 138.267C177.535 137.76 177.024 137.506 176.259 137.506C175.543 137.506 175.048 137.764 174.774 138.279C174.5 138.794 174.364 139.338 174.364 139.909ZM172.42 160L189.42 135.273H192.583L175.583 160H172.42Z" fill="#0D1F3C"/>
<defs>
<linearGradient id="paint0_linear_1028_25762" x1="200.25" y1="0" x2="200.25" y2="267" gradientUnits="userSpaceOnUse">
<stop stop-color="#2862FF"/>
<stop offset="1" stop-color="#1C46B5"/>
</linearGradient>
<radialGradient id="paint1_radial_1028_25762" cx="0" cy="0" r="1" gradientUnits="userSpaceOnUse" gradientTransform="translate(133.5 133.5) rotate(90) scale(119.5)">
<stop stop-color="#2862FF" stop-opacity="0.14"/>
<stop offset="1" stop-color="#EEF0FB" stop-opacity="0"/>
</radialGradient>
</defs>
</svg>
