<svg width="64" height="64" viewBox="0 0 64 64" fill="none" xmlns="http://www.w3.org/2000/svg">
<circle cx="32" cy="32" r="32" fill="#FFE18A"/>
<circle cx="31.9998" cy="31.9996" r="21.8182" fill="#FFCB33"/>
<path d="M37.4318 28.4431L36.3295 30.8636H21.25L22.1477 28.4431H37.4318ZM35.3295 33.1363L34.1591 35.5909H21.25L22.1477 33.1363H35.3295ZM40.2955 22.25L38.7045 25.6363C38.3409 25.3484 37.928 25.0681 37.4659 24.7954C37.0038 24.5227 36.4924 24.2954 35.9318 24.1136C35.3712 23.9318 34.7576 23.8409 34.0909 23.8409C32.9621 23.8409 31.9659 24.1401 31.1023 24.7386C30.2386 25.3295 29.5606 26.231 29.0682 27.4431C28.5833 28.6477 28.3409 30.1742 28.3409 32.0227C28.3409 33.8712 28.5833 35.3977 29.0682 36.6022C29.5606 37.8068 30.2386 38.7007 31.1023 39.284C31.9659 39.8674 32.9621 40.159 34.0909 40.159C34.7576 40.159 35.3712 40.0719 35.9318 39.8977C36.4924 39.7234 36.9962 39.5037 37.4432 39.2386C37.8977 38.9734 38.2879 38.7083 38.6136 38.4431L40.2273 41.8295C39.4167 42.534 38.4811 43.0643 37.4205 43.4204C36.3674 43.7765 35.2576 43.9545 34.0909 43.9545C32.1515 43.9545 30.4318 43.481 28.9318 42.534C27.4394 41.5795 26.2689 40.2121 25.4205 38.4318C24.572 36.6439 24.1477 34.5075 24.1477 32.0227C24.1477 29.5303 24.572 27.3901 25.4205 25.6022C26.2689 23.8143 27.4394 22.4431 28.9318 21.4886C30.4318 20.5265 32.1515 20.0454 34.0909 20.0454C35.303 20.0454 36.428 20.2386 37.4659 20.625C38.5114 21.0037 39.4545 21.5454 40.2955 22.25Z" fill="white"/>
</svg>
