<svg width="343" height="343" viewBox="0 0 343 343" fill="none" xmlns="http://www.w3.org/2000/svg">
<path opacity="0.4" d="M259.685 61.4575C259.333 61.8062 259.054 62.2212 258.864 62.6783C258.673 63.1355 258.575 63.6258 258.575 64.1211C258.575 64.6163 258.673 65.1067 258.864 65.5639C259.054 66.021 259.333 66.4359 259.685 66.7847C267.387 74.5582 271.733 85.0426 271.789 95.9856C271.845 106.929 267.607 117.457 259.985 125.309C259.286 126.012 258.894 126.963 258.894 127.954C258.894 128.945 259.286 129.896 259.985 130.599C260.684 131.292 261.627 131.683 262.611 131.687C263.114 131.69 263.612 131.592 264.076 131.398C264.54 131.205 264.96 130.92 265.312 130.561C274.313 121.289 279.316 108.855 279.246 95.9327C279.175 83.0105 274.038 70.6317 264.937 61.4575C264.236 60.7701 263.293 60.3851 262.311 60.3851C261.329 60.3851 260.386 60.7701 259.685 61.4575Z" fill="#0B1C38"/>
<path opacity="0.2" d="M275.891 141.216C275.193 141.919 274.8 142.869 274.8 143.861C274.8 144.852 275.193 145.802 275.891 146.505C276.24 146.857 276.655 147.136 277.112 147.327C277.569 147.517 278.06 147.615 278.555 147.615C279.05 147.615 279.54 147.517 279.998 147.327C280.455 147.136 280.87 146.857 281.219 146.505C294.434 133.012 301.804 114.857 301.734 95.9699C301.664 77.083 294.159 58.9833 280.843 45.5884C280.147 44.896 279.207 44.5042 278.225 44.4972C277.243 44.4902 276.297 44.8685 275.591 45.5509C275.24 45.8996 274.96 46.3145 274.77 46.7717C274.58 47.2289 274.481 47.7192 274.481 48.2145C274.481 48.7097 274.58 49.2001 274.77 49.6572C274.96 50.1144 275.24 50.5293 275.591 50.8781C287.508 62.8723 294.221 79.0776 294.277 95.9853C294.334 112.893 287.728 129.143 275.891 141.216Z" fill="#0B1C38"/>
<path d="M244.116 114.692C244.811 115.362 245.738 115.739 246.704 115.743C247.216 115.746 247.723 115.644 248.194 115.444C248.665 115.244 249.09 114.95 249.443 114.58C254.208 109.539 256.829 102.844 256.752 95.9071C256.675 88.9707 253.906 82.3354 249.03 77.4015C248.327 76.7028 247.377 76.3106 246.385 76.3106C245.394 76.3106 244.443 76.7028 243.741 77.4015C243.389 77.7503 243.11 78.1652 242.919 78.6224C242.729 79.0795 242.631 79.5699 242.631 80.0651C242.631 80.5604 242.729 81.0507 242.919 81.5079C243.11 81.9651 243.389 82.38 243.741 82.7288C247.239 86.2705 249.223 91.0343 249.272 96.0124C249.321 100.991 247.431 105.792 244.003 109.402C243.319 110.12 242.947 111.079 242.968 112.07C242.989 113.062 243.402 114.004 244.116 114.692Z" fill="#0B1C38"/>
<path opacity="0.4" d="M201.461 61.4574C200.758 60.7587 199.807 60.3665 198.816 60.3665C197.825 60.3665 196.874 60.7587 196.171 61.4574C187.014 70.6397 181.84 83.0583 181.77 96.0261C181.7 108.994 186.739 121.468 195.796 130.749C196.148 131.108 196.568 131.392 197.032 131.586C197.496 131.779 197.994 131.877 198.497 131.874C199.481 131.87 200.424 131.479 201.123 130.786C201.822 130.083 202.214 129.133 202.214 128.141C202.214 127.15 201.822 126.199 201.123 125.497C193.506 117.64 189.274 107.108 189.338 96.1654C189.401 85.2224 193.753 74.7408 201.461 66.9722C201.842 66.6209 202.145 66.1945 202.353 65.7199C202.561 65.2454 202.668 64.7329 202.668 64.2148C202.668 63.6967 202.561 63.1842 202.353 62.7096C202.145 62.2351 201.842 61.8087 201.461 61.4574Z" fill="#0B1C38"/>
<path opacity="0.2" d="M180.264 45.5508C166.949 58.9457 159.444 77.0453 159.374 95.9323C159.303 114.819 166.673 132.974 179.889 146.468C180.238 146.819 180.653 147.099 181.11 147.289C181.567 147.479 182.057 147.578 182.552 147.578C183.048 147.578 183.538 147.479 183.995 147.289C184.452 147.099 184.867 146.819 185.216 146.468C185.915 145.765 186.307 144.814 186.307 143.823C186.307 142.832 185.915 141.881 185.216 141.178C173.395 129.102 166.804 112.857 166.867 95.9588C166.93 79.0602 173.643 62.8657 185.554 50.878C185.905 50.5292 186.184 50.1143 186.375 49.6571C186.565 49.2 186.663 48.7096 186.663 48.2144C186.663 47.7191 186.565 47.2288 186.375 46.7716C186.184 46.3144 185.905 45.8995 185.554 45.5508C184.851 44.852 183.9 44.4598 182.909 44.4598C181.918 44.4598 180.967 44.852 180.264 45.5508Z" fill="#0B1C38"/>
<path d="M217.404 77.4015C216.701 76.7028 215.75 76.3106 214.759 76.3106C213.768 76.3106 212.817 76.7028 212.114 77.4015C207.253 82.3501 204.505 88.9935 204.449 95.9299C204.393 102.866 207.034 109.553 211.814 114.58C212.167 114.95 212.592 115.244 213.063 115.444C213.534 115.644 214.041 115.746 214.553 115.743C215.286 115.74 216.002 115.522 216.613 115.117C217.224 114.711 217.703 114.136 217.99 113.461C218.277 112.787 218.361 112.043 218.23 111.322C218.099 110.6 217.76 109.933 217.254 109.402C213.826 105.792 211.936 100.991 211.985 96.0124C212.034 91.0343 214.018 86.2705 217.517 82.7288C217.861 82.3726 218.131 81.9518 218.312 81.4906C218.493 81.0294 218.581 80.537 218.57 80.0417C218.56 79.5464 218.451 79.0581 218.251 78.605C218.051 78.1518 217.763 77.7428 217.404 77.4015Z" fill="#0B1C38"/>
<path d="M178.051 262.054C175.066 262.054 172.203 263.239 170.092 265.35C167.982 267.461 166.796 270.323 166.796 273.308V280.811C166.796 281.806 167.191 282.761 167.895 283.464C168.598 284.168 169.552 284.563 170.547 284.563H193.057C194.052 284.563 195.006 284.168 195.71 283.464C196.413 282.761 196.808 281.806 196.808 280.811V273.308C196.826 270.532 195.817 267.847 193.975 265.769C192.133 263.691 189.588 262.368 186.829 262.054L193.057 241.42H268.088L274.316 262.054C271.557 262.368 269.012 263.691 267.17 265.769C265.328 267.847 264.319 270.532 264.337 273.308V280.811C264.337 281.806 264.732 282.761 265.435 283.464C266.139 284.168 267.093 284.563 268.088 284.563H290.597C291.592 284.563 292.547 284.168 293.25 283.464C293.954 282.761 294.349 281.806 294.349 280.811V273.308C294.349 270.323 293.163 267.461 291.053 265.35C288.942 263.239 286.079 262.054 283.094 262.054H282.119L235.299 107.152C237.627 106.074 239.516 104.235 240.656 101.937C241.795 99.6398 242.115 97.0221 241.564 94.5176C241.012 92.0131 239.622 89.772 237.623 88.1654C235.625 86.5588 233.137 85.683 230.572 85.683C228.008 85.683 225.52 86.5588 223.522 88.1654C221.523 89.772 220.132 92.0131 219.581 94.5176C219.03 97.0221 219.35 99.6398 220.489 101.937C221.628 104.235 223.518 106.074 225.845 107.152L179.026 262.054H178.051ZM189.305 273.308V277.06H174.299V273.308C174.299 272.313 174.694 271.359 175.398 270.656C176.101 269.952 177.056 269.557 178.051 269.557H185.554C186.549 269.557 187.503 269.952 188.206 270.656C188.91 271.359 189.305 272.313 189.305 273.308ZM248.768 177.643H215.003L243.703 160.424L248.768 177.643ZM249.893 181.395L257.846 207.656H207.2L249.855 181.395H249.893ZM213.428 174.117L230.572 117.468L242.427 156.71L213.428 174.117ZM211.252 181.395H242.69L204.049 205.18L211.252 181.395ZM202.173 211.407H251.731L194.482 236.881L202.173 211.407ZM201.911 237.668L259.234 212.195L266.738 237.668H201.911ZM286.846 273.308V277.06H271.84V273.308C271.84 272.313 272.235 271.359 272.938 270.656C273.642 269.952 274.596 269.557 275.591 269.557H283.094C284.089 269.557 285.044 269.952 285.747 270.656C286.451 271.359 286.846 272.313 286.846 273.308ZM230.572 93.2333C231.314 93.2333 232.04 93.4533 232.657 93.8655C233.274 94.2778 233.755 94.8637 234.038 95.5492C234.322 96.2347 234.397 96.989 234.252 97.7167C234.107 98.4445 233.75 99.1129 233.225 99.6376C232.701 100.162 232.032 100.52 231.304 100.664C230.577 100.809 229.822 100.735 229.137 100.451C228.451 100.167 227.865 99.686 227.453 99.0691C227.041 98.4522 226.821 97.7268 226.821 96.9848C226.821 95.9899 227.216 95.0356 227.92 94.3321C228.623 93.6285 229.577 93.2333 230.572 93.2333Z" fill="#0B1C38"/>
<path d="M49.8315 279.154C49.1145 279.154 48.4058 279.006 47.7119 278.691C49.3912 276.693 50.8745 274.47 51.504 272.331C51.5282 272.318 51.5526 272.304 51.5771 272.291C51.9765 272.075 52.3636 271.848 52.737 271.609C52.8807 271.927 52.9983 272.255 53.0867 272.594C53.5823 274.505 53.0572 276.628 51.9864 278.741C51.7996 278.808 51.611 278.869 51.4206 278.923C50.8878 279.075 50.3574 279.154 49.8315 279.154Z" fill="#EAEFFF"/>
<path d="M283.486 286.6C283.486 286.6 306.52 287.504 309.858 269.13C310.26 266.918 306.701 266.996 301.862 267.073C296.699 267.156 290.081 267.239 285.261 264.543C276.122 259.433 283.486 286.6 283.486 286.6Z" fill="white"/>
<path d="M297.075 282.685C297.665 280.866 297.845 278.49 297.479 276.041C298.466 275.914 299.591 275.726 300.77 275.451C302.639 275.274 304.527 274.683 306.293 273.455C306.667 273.257 307.035 273.045 307.391 272.818C305.568 277.239 302.115 280.544 297.075 282.685Z" fill="#BCCEFF"/>
<path d="M283.267 265.256C283.13 265.256 283.009 265.285 282.918 265.356C282.622 265.587 281.222 267.202 282.682 276.356C283.271 280.05 284.113 283.583 284.532 285.25C286.402 285.21 290.652 284.942 295.061 283.451C302.712 280.864 307.243 275.965 308.529 268.889C308.531 268.874 308.533 268.862 308.535 268.851C307.843 268.328 304.485 268.383 302.015 268.422C296.566 268.51 289.781 268.619 284.601 265.723C284.314 265.561 283.708 265.256 283.267 265.256ZM284.045 287.959C283.689 287.959 283.477 287.952 283.433 287.951C282.843 287.927 282.337 287.524 282.182 286.954C282.128 286.754 280.845 281.996 280.014 276.782C278.415 266.749 279.956 264.241 281.255 263.227C282.096 262.57 283.589 262.06 285.92 263.364C290.465 265.906 296.845 265.803 301.972 265.72C306.405 265.65 309.334 265.603 310.642 267.143C310.999 267.565 311.383 268.293 311.188 269.371C309.729 277.398 304.426 283.162 295.85 286.037C290.618 287.791 285.73 287.959 284.045 287.959Z" fill="#11296B"/>
<path d="M293.842 276.314C293.258 276.314 292.785 275.841 292.784 275.257C292.784 274.673 293.257 274.199 293.841 274.198C293.952 274.198 304.998 274.115 308.997 268.515C309.337 268.04 309.998 267.929 310.473 268.27C310.949 268.609 311.059 269.27 310.72 269.746C306.085 276.233 294.341 276.314 293.843 276.314H293.842Z" fill="#11296B"/>
<path d="M180.662 230.915C180.662 230.915 213.021 204.122 240.915 214.375C271.297 225.54 264.291 257.91 264.291 257.91C264.291 257.91 282.943 259.025 292.491 268.573C297.1 273.182 296.937 281.156 295.047 283.831C291.061 289.473 240.885 286.788 240.885 286.788C240.885 286.788 187.311 289.228 170.585 271.646C153.858 254.066 180.662 230.915 180.662 230.915Z" fill="#6F96FF"/>
<path d="M263.454 245.806C261.095 235.86 254.74 224.696 238.941 218.888C234.145 217.126 229.226 216.386 224.347 216.386C211.685 216.386 199.293 221.368 190.023 226.384C189.97 226.29 189.916 226.199 189.862 226.105C198.52 220.667 212.807 213.402 227.348 213.402C231.741 213.402 236.159 214.065 240.45 215.642C252.555 220.09 260.025 228.462 262.656 240.522C263.055 242.349 263.307 244.129 263.454 245.806Z" fill="#BCCEFF"/>
<path d="M265.67 286.076C264.328 286.076 262.991 286.069 261.675 286.055C261.673 285.984 261.668 285.911 261.662 285.835C261.523 284.3 260.453 281.905 258.844 279.522C260.999 279.555 263.245 279.576 265.513 279.576C278.332 279.576 291.92 278.925 294.759 276.305C295.21 279.156 294.799 281.842 293.944 283.052C293.596 283.546 290.632 286.011 266.479 286.075C266.209 286.076 265.94 286.076 265.67 286.076Z" fill="#2459E8"/>
<path d="M265.523 288.777C252.932 288.778 240.937 288.143 240.814 288.137C240.069 288.097 239.498 287.461 239.537 286.716C239.577 285.971 240.218 285.403 240.959 285.439C241.084 285.446 253.622 286.103 266.479 286.075C290.633 286.011 293.596 283.546 293.945 283.052C295.52 280.823 295.586 273.579 291.537 269.528C282.47 260.462 264.393 259.27 264.211 259.259C263.817 259.235 263.454 259.041 263.215 258.727C262.977 258.413 262.888 258.01 262.971 257.625C262.988 257.547 264.643 249.629 262.656 240.523C260.026 228.463 252.555 220.091 240.45 215.643C213.596 205.774 181.842 231.693 181.525 231.956C180.95 232.433 180.099 232.352 179.623 231.777C179.147 231.203 179.227 230.351 179.802 229.876C180.138 229.597 188.158 223.005 199.757 217.577C215.237 210.334 229.631 208.788 241.382 213.107C257.653 219.087 263.379 231.056 265.318 240.046C266.902 247.391 266.29 253.861 265.874 256.691C270.596 257.179 285.144 259.315 293.447 267.618C298.448 272.618 298.533 281.239 296.151 284.611C295.36 285.731 293.257 288.707 266.476 288.777C266.158 288.777 265.84 288.777 265.523 288.777Z" fill="#11296B"/>
<path d="M243.854 286.991C239.659 287.768 213.495 288.255 181.689 288.45C156.253 288.612 127.208 288.589 102.91 288.376C75.8565 288.143 54.6934 287.684 50.9579 286.991C43.6424 285.637 35.5026 282.097 35.5196 271.894C35.5263 268.382 36.3571 261.907 45.1689 257.78C56.2739 252.586 69.0205 255.544 88.1844 256.747C90.9743 256.922 93.9022 257.061 96.9791 257.131L195.608 264.569L198.144 264.761L199.603 264.873C199.603 264.873 228.49 259.293 247.844 269.952C260.92 277.156 254.892 284.951 243.854 286.991Z" fill="#6F96FF"/>
<path d="M195.608 264.57L195.353 264.551C195.435 264.334 195.514 264.116 195.592 263.896C195.601 264.12 195.608 264.347 195.608 264.57Z" fill="#2459E8"/>
<path d="M165.142 287.178C179.796 283.47 191.011 275.98 195.352 264.55L195.608 264.569C195.686 270.526 193.632 276.41 189.849 281.27C211.929 281.092 230.356 280.763 239.058 280.286C238.198 282.57 237.682 284.775 237.412 286.134C234.743 286.264 232.054 286.349 229.372 286.427C221.811 286.642 214.239 286.763 206.667 286.866C199.095 286.965 191.521 287.037 183.946 287.086C177.679 287.129 171.411 287.158 165.142 287.178ZM118.399 287.13C109.949 287.087 101.5 287.022 93.051 286.926C85.4787 286.837 77.9061 286.728 70.3404 286.553C68.6534 286.513 66.9663 286.471 65.2803 286.424L65.3532 280.655C73.0187 280.874 83.1824 281.047 94.7837 281.172C90.6471 276.086 88.2287 269.793 88.0459 262.238C88.0104 260.766 88.0324 259.281 88.1162 257.787C88.5072 257.793 88.8991 257.798 89.2902 257.801C90.8045 273.136 102.227 282.748 118.399 287.13Z" fill="#2459E8"/>
<path d="M96.9678 257.582C89.3565 258.103 81.7168 257.624 74.1791 257.014C70.4077 256.731 66.6529 256.417 62.9281 256.302C59.2074 256.206 55.5032 256.313 51.9444 257.037L50.6138 257.318C50.1708 257.415 49.748 257.574 49.3138 257.697L48.0193 258.095L46.7691 258.607C45.0844 259.253 43.5125 260.128 42.1166 261.181C40.7267 262.24 39.5113 263.5 38.6483 264.968C38.4423 265.341 38.2188 265.704 38.0561 266.098C37.8648 266.479 37.7262 266.881 37.5786 267.281C37.3148 268.092 37.1144 268.928 37.0025 269.786C36.9035 270.641 36.8392 271.534 36.8981 272.408C36.9267 272.843 36.9264 273.284 36.9745 273.715L37.1776 274.993C37.5361 276.671 38.2217 278.242 39.2482 279.581C40.2693 280.924 41.6146 282.031 43.1308 282.905C44.6484 283.78 46.328 284.433 48.067 284.929C48.4976 285.065 48.9423 285.165 49.384 285.273C49.8232 285.389 50.2733 285.474 50.721 285.565C51.1753 285.674 51.6025 285.709 52.0356 285.765C52.2548 285.79 52.4619 285.824 52.6908 285.843L53.3863 285.894C54.3115 285.967 55.2402 286.033 56.1839 286.074C57.1238 286.12 58.0602 286.177 59.0051 286.208C62.7747 286.366 66.5578 286.464 70.3398 286.554C77.9056 286.729 85.4782 286.837 93.0504 286.927C108.197 287.1 123.347 287.172 138.497 287.199C153.647 287.217 168.798 287.191 183.946 287.086C191.521 287.037 199.095 286.965 206.666 286.866C214.238 286.764 221.811 286.643 229.371 286.428C233.148 286.318 236.936 286.194 240.667 285.95L242.058 285.848C242.512 285.806 242.929 285.742 243.367 285.692C244.241 285.558 245.133 285.349 245.989 285.102C246.851 284.859 247.694 284.565 248.502 284.213C249.309 283.863 250.093 283.467 250.801 282.994C252.22 282.067 253.405 280.83 253.784 279.475C253.967 278.801 253.947 278.108 253.742 277.411C253.538 276.716 253.144 276.025 252.64 275.379C251.62 274.081 250.191 272.98 248.679 272.02C247.92 271.537 247.126 271.093 246.307 270.679C245.504 270.242 244.661 269.875 243.827 269.494C242.135 268.779 240.412 268.121 238.638 267.603C237.761 267.317 236.858 267.105 235.967 266.859L234.613 266.546C234.162 266.439 233.71 266.339 233.252 266.258C231.436 265.886 229.591 265.635 227.745 265.408C225.895 265.208 224.035 265.081 222.174 264.984C214.718 264.636 207.243 265.012 199.689 265.315H199.678C199.427 265.325 199.216 265.13 199.206 264.88C199.198 264.672 199.331 264.492 199.519 264.43C201.363 263.827 203.23 263.415 205.117 263.065C206.06 262.891 207.007 262.741 207.957 262.616C208.907 262.482 209.86 262.38 210.815 262.295C211.769 262.204 212.726 262.132 213.684 262.088C214.642 262.03 215.602 262.003 216.562 261.984C218.483 261.942 220.405 262.019 222.326 262.11C226.167 262.351 230 262.826 233.788 263.605C234.737 263.784 235.677 264.023 236.619 264.238C237.555 264.494 238.498 264.717 239.422 265.018C241.285 265.562 243.109 266.256 244.905 267.016C245.793 267.421 246.688 267.813 247.55 268.281C248.422 268.721 249.283 269.202 250.122 269.736C251.795 270.805 253.433 272.028 254.767 273.713C255.424 274.558 256.004 275.53 256.336 276.653C256.672 277.768 256.712 279.039 256.388 280.194C256.062 281.349 255.44 282.351 254.716 283.176C253.987 284.004 253.154 284.677 252.286 285.252C251.416 285.829 250.501 286.291 249.573 286.693C248.643 287.098 247.694 287.429 246.733 287.699C245.77 287.977 244.812 288.2 243.817 288.357C243.314 288.418 242.794 288.494 242.304 288.539L240.862 288.645C237.032 288.895 233.246 289.018 229.449 289.129C221.862 289.345 214.283 289.466 206.703 289.567C199.123 289.667 191.543 289.739 183.964 289.788C168.807 289.893 153.65 289.918 138.493 289.901C123.336 289.874 108.179 289.802 93.02 289.628C85.44 289.539 77.8602 289.431 70.2765 289.256C66.484 289.165 62.6925 289.066 58.8918 288.908C57.9434 288.876 56.989 288.819 56.037 288.772C55.0879 288.731 54.1274 288.663 53.164 288.587L52.4427 288.534C52.1998 288.513 51.9384 288.474 51.6873 288.445C51.1813 288.38 50.6639 288.326 50.1951 288.215C49.7149 288.118 49.2342 288.026 48.7567 287.901C48.2784 287.785 47.7993 287.675 47.3255 287.527C45.4256 286.984 43.5444 286.262 41.7791 285.244C40.0186 284.23 38.3737 282.895 37.1003 281.219C35.8188 279.552 34.9597 277.57 34.5322 275.543L34.2893 274.015C34.2325 273.507 34.2282 272.997 34.1974 272.487C34.135 271.47 34.2032 270.464 34.3229 269.439C34.4556 268.419 34.6948 267.405 35.0188 266.416C35.197 265.927 35.3706 265.435 35.6027 264.966C35.8059 264.484 36.0743 264.036 36.3299 263.581C37.39 261.777 38.8641 260.267 40.4748 259.029C42.0933 257.791 43.8661 256.803 45.7094 256.076L47.086 255.504L48.5039 255.056C48.9786 254.916 49.447 254.743 49.9277 254.631L51.3724 254.304C55.2366 253.47 59.1602 253.304 63.0032 253.408C66.8534 253.502 70.6519 253.841 74.4271 254.219C76.3143 254.417 78.1979 254.593 80.0769 254.809L85.7107 255.416C89.464 255.86 93.2189 256.198 96.9881 256.681L96.9949 256.682C97.2421 256.713 97.4173 256.94 97.386 257.188C97.358 257.405 97.1786 257.567 96.9678 257.582Z" fill="#11296B"/>
<path d="M197.3 252.556C197.891 277.013 173.958 289.169 144.088 289.89C114.218 290.611 89.723 279.625 89.133 255.167C88.5668 231.725 103.139 204.586 137.389 201.576C141.485 199.36 147.018 195.56 150.05 190.056C150.998 188.336 153.514 188.521 154.183 190.374C155.071 192.837 155.905 196.079 154.344 200.327C158.88 197.988 163.379 195.342 164.848 193.958C166.421 192.477 169.003 193.594 168.981 195.754C168.958 197.842 168.311 202.285 167.529 206.015C187.42 214.833 196.866 234.567 197.3 252.556Z" fill="#6F96FF"/>
<path d="M118.4 287.131H118.399C102.227 282.748 90.8043 273.137 89.29 257.802C89.2909 257.802 89.2909 257.802 89.2917 257.802C90.8052 273.136 102.23 282.748 118.4 287.131Z" fill="#6F96FF"/>
<path d="M89.1525 255.799H89.1517C89.1424 255.59 89.1356 255.378 89.1305 255.166C89.0933 253.666 89.1204 252.153 89.2084 250.629C89.2084 250.635 89.2092 250.64 89.2092 250.646C89.1212 252.162 89.0958 253.672 89.1322 255.166C89.1373 255.378 89.1441 255.59 89.1525 255.799Z" fill="#6F96FF"/>
<path d="M135.684 289.774C129.532 289.445 123.71 288.57 118.399 287.13H118.4C123.711 288.57 129.533 289.445 135.684 289.774ZM89.2919 257.801C89.291 257.801 89.291 257.801 89.2902 257.801C89.2259 257.144 89.1793 256.477 89.1514 255.8H89.1522C89.1801 256.477 89.2267 257.144 89.2919 257.801Z" fill="#11296B"/>
<path d="M195.592 263.896C195.591 263.895 195.591 263.894 195.591 263.893C196.375 261.667 196.902 259.299 197.149 256.781C197.149 256.779 197.149 256.777 197.149 256.775C197.151 256.761 197.153 256.747 197.153 256.733V256.732C197.155 256.718 197.156 256.704 197.158 256.69C197.158 256.686 197.158 256.682 197.158 256.678C197.159 256.668 197.16 256.66 197.161 256.649C197.162 256.644 197.163 256.639 197.163 256.634C197.164 256.624 197.164 256.617 197.165 256.607C197.166 256.6 197.167 256.593 197.168 256.586C197.169 256.576 197.169 256.567 197.17 256.557C197.17 256.549 197.171 256.543 197.172 256.535C197.173 256.529 197.173 256.524 197.174 256.518C197.175 256.511 197.175 256.502 197.175 256.494C197.176 256.49 197.176 256.486 197.177 256.482C197.179 256.463 197.18 256.445 197.181 256.427C197.182 256.425 197.181 256.425 197.182 256.423C197.183 256.414 197.184 256.403 197.185 256.394C197.185 256.39 197.185 256.39 197.185 256.387C197.237 255.778 197.274 255.16 197.293 254.535V254.534C197.294 254.488 197.296 254.443 197.296 254.398C197.296 254.394 197.296 254.394 197.297 254.391C197.298 254.359 197.299 254.325 197.3 254.292C197.3 254.291 197.3 254.29 197.3 254.289C197.3 254.279 197.3 254.269 197.3 254.259C197.301 254.256 197.301 254.252 197.301 254.249C197.302 254.218 197.301 254.187 197.302 254.157C197.302 254.152 197.302 254.151 197.302 254.147C197.303 254.138 197.303 254.129 197.303 254.119C197.303 254.115 197.303 254.112 197.303 254.107C197.304 254.078 197.304 254.049 197.305 254.02C197.305 254.015 197.305 254.008 197.305 254.004C197.305 253.997 197.306 253.988 197.306 253.98C197.306 253.975 197.306 253.967 197.306 253.961C197.306 253.952 197.306 253.942 197.307 253.933C197.307 253.923 197.307 253.914 197.307 253.903C197.307 253.896 197.307 253.889 197.307 253.881C197.307 253.875 197.307 253.868 197.307 253.86C197.307 253.854 197.307 253.847 197.307 253.84C197.307 253.833 197.307 253.824 197.307 253.816C197.307 253.809 197.307 253.801 197.308 253.793C197.308 253.782 197.308 253.771 197.308 253.76C197.308 253.754 197.308 253.748 197.308 253.742C197.308 253.735 197.308 253.725 197.308 253.717C197.308 253.711 197.308 253.705 197.309 253.699C197.309 253.688 197.309 253.68 197.309 253.668C197.309 253.664 197.309 253.66 197.309 253.655C197.309 253.642 197.309 253.63 197.309 253.617C197.309 253.612 197.309 253.607 197.309 253.603C197.309 253.592 197.309 253.582 197.309 253.572C197.309 253.567 197.309 253.563 197.309 253.559C197.309 253.545 197.309 253.531 197.31 253.517C197.31 253.516 197.31 253.516 197.31 253.515C197.31 253.501 197.31 253.488 197.31 253.473C197.31 253.469 197.31 253.465 197.31 253.462C197.31 253.45 197.31 253.44 197.31 253.428C197.31 253.424 197.31 253.421 197.31 253.417C197.31 253.402 197.31 253.388 197.31 253.374C197.31 253.373 197.31 253.372 197.31 253.37C197.31 253.358 197.309 253.344 197.309 253.33C197.309 253.326 197.309 253.322 197.309 253.318C197.309 253.306 197.309 253.296 197.309 253.284C197.309 253.28 197.309 253.278 197.309 253.275C197.309 253.259 197.309 253.245 197.309 253.231C197.309 253.229 197.309 253.227 197.309 253.225C197.309 253.214 197.309 253.198 197.309 253.187C197.309 253.183 197.309 253.18 197.309 253.176C197.308 253.164 197.308 253.149 197.308 253.137C197.308 253.136 197.308 253.134 197.308 253.132C197.308 253.117 197.308 253.101 197.308 253.087C197.308 253.085 197.308 253.084 197.308 253.082C197.307 253.069 197.307 253.055 197.307 253.043C197.307 253.039 197.307 253.036 197.307 253.032C197.307 253.018 197.307 253.005 197.307 252.991C197.307 252.99 197.307 252.989 197.307 252.989C197.307 252.974 197.307 252.958 197.307 252.943C197.307 252.941 197.307 252.939 197.307 252.937C197.306 252.925 197.306 252.91 197.306 252.898C197.306 252.895 197.306 252.892 197.306 252.889C197.305 252.858 197.305 252.83 197.304 252.799C197.304 252.797 197.304 252.795 197.304 252.793C197.304 252.781 197.303 252.767 197.303 252.755C197.303 252.751 197.303 252.747 197.303 252.744C197.302 252.714 197.301 252.685 197.301 252.656C197.301 252.652 197.302 252.649 197.301 252.646C197.301 252.634 197.301 252.623 197.301 252.611C197.3 252.608 197.3 252.603 197.3 252.599C197.3 252.585 197.299 252.57 197.299 252.556C197.279 251.759 197.243 250.959 197.188 250.155C197.188 250.155 197.188 250.152 197.188 250.151C197.242 250.955 197.279 251.759 197.3 252.556C197.4 256.684 196.8 260.463 195.592 263.896Z" fill="#2459E8"/>
<path d="M195.352 264.551H195.352C195.434 264.335 195.514 264.115 195.591 263.895C195.591 263.895 195.591 263.896 195.592 263.897C195.514 264.116 195.435 264.335 195.352 264.551Z" fill="#6F96FF"/>
<path d="M165.143 287.178C179.796 283.47 191.012 275.98 195.352 264.55H195.353C191.012 275.98 179.797 283.47 165.143 287.178C165.143 287.178 165.143 287.178 165.143 287.178Z" fill="#6F96FF"/>
<path d="M149.212 289.649C154.826 289.254 160.181 288.432 165.141 287.178C165.142 287.178 165.141 287.178 165.142 287.178C160.183 288.432 154.826 289.255 149.212 289.649Z" fill="#11296B"/>
<path d="M141.345 289.923C139.432 289.923 137.543 289.874 135.685 289.775C129.533 289.446 123.711 288.571 118.401 287.131C102.23 282.748 90.8057 273.136 89.2922 257.801C89.2271 257.145 89.1805 256.478 89.1526 255.8C89.1441 255.59 89.1373 255.379 89.1323 255.167C89.0959 253.673 89.1213 252.163 89.2093 250.647C90.8099 273.199 113.425 283.726 141.358 283.726C142.263 283.726 143.173 283.715 144.089 283.693C169.827 283.069 191.163 273.954 196.189 255.793C196.198 256.034 196.207 256.274 196.212 256.515C196.274 259.11 196.062 261.567 195.591 263.888C196.376 261.665 196.902 259.295 197.15 256.781C196.902 259.299 196.376 261.667 195.591 263.893C195.514 264.113 195.434 264.333 195.352 264.55C191.011 275.981 179.796 283.47 165.142 287.178C160.182 288.433 154.827 289.255 149.212 289.65C147.526 289.768 145.818 289.849 144.089 289.89C143.17 289.912 142.253 289.923 141.345 289.923ZM197.15 256.775C197.151 256.761 197.153 256.747 197.154 256.733C197.153 256.747 197.151 256.761 197.15 256.775ZM197.154 256.732C197.155 256.718 197.156 256.704 197.158 256.69C197.156 256.704 197.155 256.718 197.154 256.732ZM197.159 256.678C197.16 256.669 197.161 256.659 197.161 256.649C197.161 256.66 197.16 256.668 197.159 256.678ZM197.163 256.634C197.164 256.626 197.165 256.616 197.166 256.607C197.165 256.617 197.164 256.624 197.163 256.634ZM197.168 256.586C197.169 256.576 197.17 256.566 197.171 256.557C197.17 256.567 197.169 256.576 197.168 256.586ZM197.172 256.535C197.173 256.529 197.173 256.524 197.174 256.518C197.173 256.524 197.173 256.529 197.172 256.535ZM197.176 256.494C197.177 256.49 197.177 256.486 197.177 256.482C197.177 256.486 197.177 256.49 197.176 256.494ZM197.182 256.427C197.182 256.426 197.183 256.425 197.183 256.423C197.182 256.425 197.183 256.425 197.182 256.427ZM197.185 256.394C197.185 256.391 197.185 256.389 197.185 256.387C197.185 256.39 197.185 256.39 197.185 256.394ZM197.293 254.535C197.293 254.534 197.293 254.534 197.293 254.534V254.535ZM197.297 254.398C197.297 254.395 197.297 254.394 197.298 254.391C197.297 254.394 197.297 254.394 197.297 254.398ZM197.3 254.292C197.3 254.291 197.3 254.29 197.3 254.289C197.3 254.29 197.3 254.291 197.3 254.292ZM197.3 254.259C197.301 254.256 197.301 254.252 197.301 254.249C197.301 254.252 197.301 254.256 197.3 254.259ZM197.303 254.157C197.303 254.153 197.303 254.151 197.303 254.147C197.303 254.151 197.303 254.152 197.303 254.157ZM197.304 254.119C197.304 254.115 197.304 254.111 197.304 254.107C197.304 254.112 197.304 254.115 197.304 254.119ZM197.305 254.02C197.305 254.015 197.305 254.009 197.305 254.004C197.305 254.008 197.305 254.015 197.305 254.02ZM197.306 253.98C197.306 253.974 197.306 253.968 197.306 253.961C197.306 253.967 197.306 253.975 197.306 253.98ZM197.307 253.933C197.307 253.923 197.307 253.913 197.307 253.903C197.307 253.914 197.307 253.923 197.307 253.933ZM197.307 253.881C197.307 253.875 197.308 253.868 197.308 253.86C197.308 253.868 197.307 253.875 197.307 253.881ZM197.308 253.84C197.308 253.832 197.308 253.825 197.308 253.816C197.308 253.824 197.308 253.833 197.308 253.84ZM197.309 253.793C197.309 253.782 197.309 253.771 197.309 253.76C197.309 253.771 197.309 253.782 197.309 253.793ZM197.309 253.742C197.309 253.733 197.309 253.726 197.309 253.717C197.309 253.725 197.309 253.735 197.309 253.742ZM197.31 253.699C197.31 253.689 197.31 253.678 197.31 253.668C197.31 253.68 197.31 253.688 197.31 253.699ZM197.31 253.655C197.31 253.643 197.31 253.629 197.31 253.617C197.31 253.63 197.31 253.642 197.31 253.655ZM197.31 253.603C197.31 253.593 197.31 253.582 197.31 253.572C197.31 253.582 197.31 253.592 197.31 253.603ZM197.31 253.559C197.31 253.545 197.31 253.531 197.31 253.517C197.31 253.531 197.31 253.545 197.31 253.559ZM197.31 253.515C197.31 253.501 197.31 253.487 197.31 253.473C197.31 253.488 197.31 253.501 197.31 253.515ZM197.31 253.462C197.31 253.451 197.31 253.439 197.31 253.428C197.31 253.44 197.31 253.45 197.31 253.462ZM197.31 253.417C197.31 253.402 197.31 253.388 197.31 253.374C197.31 253.388 197.31 253.402 197.31 253.417ZM197.31 253.37C197.31 253.358 197.31 253.344 197.31 253.33C197.31 253.344 197.31 253.358 197.31 253.37ZM197.31 253.318C197.31 253.307 197.31 253.295 197.31 253.284C197.31 253.296 197.31 253.306 197.31 253.318ZM197.31 253.275C197.31 253.26 197.31 253.245 197.31 253.231C197.31 253.245 197.31 253.259 197.31 253.275ZM197.31 253.225C197.31 253.213 197.31 253.199 197.31 253.187C197.31 253.198 197.31 253.214 197.31 253.225ZM197.31 253.176C197.309 253.163 197.309 253.15 197.309 253.137C197.309 253.149 197.309 253.164 197.31 253.176ZM197.309 253.132C197.309 253.117 197.309 253.102 197.309 253.087C197.309 253.101 197.309 253.117 197.309 253.132ZM197.309 253.082C197.308 253.069 197.308 253.056 197.308 253.043C197.308 253.055 197.308 253.069 197.309 253.082ZM197.308 253.032C197.308 253.019 197.308 253.005 197.307 252.991C197.308 253.005 197.308 253.018 197.308 253.032ZM197.307 252.989C197.307 252.973 197.307 252.959 197.307 252.943C197.307 252.958 197.307 252.974 197.307 252.989ZM197.307 252.937C197.306 252.924 197.306 252.911 197.306 252.898C197.306 252.91 197.306 252.925 197.307 252.937ZM197.306 252.889C197.305 252.859 197.305 252.829 197.304 252.799C197.305 252.83 197.305 252.858 197.306 252.889ZM197.304 252.793C197.304 252.78 197.304 252.768 197.304 252.755C197.304 252.767 197.304 252.781 197.304 252.793ZM197.304 252.744C197.303 252.714 197.302 252.685 197.302 252.656C197.302 252.685 197.303 252.714 197.304 252.744ZM197.301 252.646C197.301 252.634 197.301 252.623 197.301 252.611C197.301 252.623 197.301 252.634 197.301 252.646ZM197.3 252.599C197.3 252.585 197.299 252.57 197.299 252.556C197.28 251.759 197.243 250.959 197.188 250.155C197.243 250.959 197.28 251.759 197.299 252.556C197.299 252.57 197.3 252.585 197.3 252.599Z" fill="#2459E8"/>
<path d="M91.665 237.174C91.6659 237.169 91.6676 237.165 91.6693 237.16C91.6676 237.164 91.6659 237.17 91.665 237.174ZM91.6727 237.15C97.0679 219.913 111.196 204.464 135.846 201.73C111.198 204.465 97.0688 219.913 91.6727 237.15ZM135.849 201.73C135.863 201.728 135.879 201.726 135.894 201.725C135.878 201.726 135.865 201.728 135.849 201.73ZM135.898 201.724C135.945 201.719 135.992 201.714 136.04 201.709C135.993 201.714 135.945 201.719 135.898 201.724ZM136.051 201.708C136.063 201.706 136.076 201.705 136.088 201.704C136.075 201.705 136.063 201.706 136.051 201.708ZM136.099 201.703C136.112 201.701 136.126 201.699 136.138 201.699C136.127 201.699 136.111 201.701 136.099 201.703ZM136.144 201.698C136.176 201.694 136.208 201.691 136.239 201.688C136.208 201.691 136.176 201.694 136.144 201.698ZM136.248 201.687C136.26 201.686 136.275 201.684 136.286 201.682C136.274 201.684 136.26 201.685 136.248 201.687ZM136.296 201.682C136.311 201.68 136.322 201.679 136.336 201.677C136.325 201.679 136.309 201.681 136.296 201.682ZM136.343 201.677C136.375 201.673 136.405 201.671 136.436 201.667C136.406 201.671 136.374 201.674 136.343 201.677ZM136.448 201.666C136.459 201.665 136.473 201.664 136.484 201.662C136.472 201.664 136.46 201.665 136.448 201.666ZM136.495 201.661C136.51 201.66 136.522 201.659 136.537 201.657C136.523 201.659 136.509 201.66 136.495 201.661ZM136.54 201.656C136.573 201.654 136.604 201.65 136.636 201.647C136.605 201.65 136.572 201.654 136.54 201.656ZM136.647 201.646C136.658 201.645 136.671 201.644 136.682 201.643C136.67 201.644 136.659 201.645 136.647 201.646ZM136.695 201.641C136.707 201.64 136.718 201.639 136.73 201.638C136.717 201.639 136.707 201.64 136.695 201.641ZM136.743 201.637C136.757 201.635 136.774 201.633 136.788 201.633C136.774 201.633 136.757 201.635 136.743 201.637ZM136.788 201.633C136.804 201.631 136.819 201.629 136.834 201.627C136.819 201.629 136.804 201.631 136.788 201.633ZM136.848 201.627C136.86 201.626 136.869 201.624 136.881 201.623C136.871 201.624 136.859 201.626 136.848 201.627ZM136.895 201.622C136.907 201.621 136.919 201.62 136.931 201.619C136.918 201.62 136.908 201.621 136.895 201.622ZM136.941 201.617C136.971 201.615 137.003 201.611 137.034 201.609C137.003 201.612 136.972 201.615 136.941 201.617ZM137.048 201.608C137.06 201.606 137.069 201.605 137.081 201.605C137.07 201.605 137.059 201.606 137.048 201.608ZM137.096 201.603C137.106 201.602 137.119 201.601 137.129 201.6C137.118 201.601 137.106 201.602 137.096 201.603ZM137.142 201.599C137.173 201.596 137.204 201.594 137.234 201.59C137.205 201.594 137.171 201.596 137.142 201.599ZM137.248 201.589C137.259 201.588 137.269 201.588 137.281 201.586C137.268 201.588 137.26 201.588 137.248 201.589ZM137.296 201.585C137.306 201.584 137.319 201.583 137.329 201.582C137.317 201.583 137.308 201.584 137.296 201.585ZM137.343 201.581C137.357 201.579 137.373 201.578 137.389 201.577C137.374 201.578 137.357 201.579 137.343 201.581Z" fill="#6F96FF"/>
<path d="M196.189 255.793C195.526 239.048 185.86 220.039 168.412 210.588C166.4 209.499 165.314 207.241 165.756 204.996C166.257 202.463 166.663 200.083 166.678 198.702C166.691 197.489 166.265 196.924 165.611 196.924C165.1 196.924 164.45 197.268 163.76 197.917C162.612 199 159.611 200.853 156.189 202.728C155.958 202.855 155.716 202.911 155.481 202.911C154.646 202.911 153.893 202.19 154.017 201.265C154.394 198.455 153.759 196.176 153.094 194.334C152.756 193.394 152.311 192.818 151.771 192.818C151.243 192.818 150.624 193.363 149.92 194.651C147.909 198.325 144.346 200.954 140.981 202.955C138.29 204.554 135.294 205.557 132.198 206.025C109.164 209.508 95.8328 224.434 90.6094 241.034C90.9133 239.741 91.2654 238.451 91.6649 237.174C91.6657 237.17 91.6674 237.164 91.6691 237.16C91.67 237.156 91.6708 237.153 91.6725 237.15C97.0686 219.913 111.198 204.465 135.845 201.73H135.849C135.865 201.728 135.878 201.726 135.894 201.725C135.895 201.725 135.896 201.725 135.898 201.724C135.945 201.719 135.993 201.714 136.04 201.709C136.043 201.709 136.048 201.708 136.051 201.708C136.063 201.706 136.075 201.705 136.087 201.704C136.093 201.703 136.093 201.703 136.098 201.703C136.111 201.701 136.126 201.699 136.138 201.698C136.14 201.698 136.143 201.698 136.144 201.698C136.176 201.694 136.208 201.691 136.239 201.687C136.242 201.687 136.245 201.687 136.248 201.687C136.26 201.685 136.274 201.684 136.286 201.682C136.289 201.682 136.292 201.682 136.296 201.682C136.308 201.681 136.324 201.679 136.336 201.677C136.338 201.677 136.341 201.677 136.343 201.676C136.374 201.674 136.406 201.671 136.436 201.667C136.44 201.667 136.445 201.666 136.448 201.666C136.46 201.665 136.472 201.664 136.484 201.662C136.487 201.662 136.491 201.661 136.495 201.661C136.509 201.66 136.523 201.659 136.537 201.657C136.539 201.657 136.539 201.657 136.54 201.656C136.572 201.654 136.605 201.65 136.636 201.647C136.639 201.647 136.644 201.646 136.647 201.646C136.659 201.645 136.67 201.643 136.682 201.643C136.687 201.642 136.69 201.642 136.695 201.641C136.707 201.64 136.717 201.639 136.73 201.638C136.733 201.638 136.739 201.637 136.743 201.637C136.757 201.635 136.774 201.633 136.788 201.632C136.804 201.631 136.819 201.629 136.834 201.627C136.838 201.627 136.843 201.627 136.848 201.627C136.859 201.626 136.87 201.624 136.881 201.623C136.886 201.623 136.89 201.622 136.895 201.622C136.908 201.621 136.918 201.62 136.931 201.619C136.934 201.618 136.937 201.618 136.941 201.617C136.972 201.615 137.002 201.612 137.034 201.609C137.039 201.609 137.043 201.608 137.048 201.608C137.058 201.606 137.069 201.605 137.08 201.605C137.085 201.605 137.091 201.604 137.096 201.603C137.106 201.602 137.118 201.601 137.129 201.6C137.134 201.599 137.137 201.599 137.142 201.599C137.171 201.596 137.205 201.594 137.234 201.59C137.239 201.59 137.243 201.59 137.248 201.589C137.26 201.588 137.268 201.588 137.281 201.586C137.286 201.586 137.29 201.585 137.295 201.585C137.308 201.584 137.317 201.583 137.329 201.582C137.334 201.582 137.338 201.582 137.343 201.581C137.357 201.579 137.374 201.578 137.388 201.577C141.484 199.361 147.018 195.56 150.049 190.056C150.49 189.257 151.27 188.869 152.046 188.869C152.938 188.869 153.824 189.383 154.182 190.374C154.709 191.836 155.217 193.573 155.217 195.633C155.216 197.041 154.978 198.601 154.343 200.327C158.879 197.988 163.378 195.342 164.847 193.958C165.342 193.492 165.937 193.283 166.519 193.283C167.779 193.283 168.981 194.262 168.981 195.728C168.981 195.737 168.981 195.745 168.981 195.754C168.957 197.842 168.31 202.285 167.528 206.015C186.538 214.443 196.008 232.84 197.189 250.155C197.022 252.123 196.685 254.001 196.189 255.793Z" fill="#BCCEFF"/>
<path d="M197.149 256.782C197.149 256.78 197.149 256.777 197.149 256.776C197.149 256.778 197.149 256.78 197.149 256.782ZM197.154 256.734V256.733V256.734ZM197.158 256.691C197.158 256.687 197.159 256.683 197.159 256.679C197.159 256.683 197.158 256.687 197.158 256.691ZM197.161 256.65C197.162 256.646 197.163 256.639 197.163 256.635C197.163 256.64 197.162 256.645 197.161 256.65ZM197.165 256.608C197.166 256.601 197.167 256.594 197.168 256.587C197.167 256.594 197.166 256.601 197.165 256.608ZM197.171 256.558C197.171 256.551 197.171 256.543 197.172 256.536C197.171 256.544 197.171 256.55 197.171 256.558ZM197.174 256.519C197.175 256.512 197.176 256.502 197.176 256.495C197.175 256.503 197.175 256.512 197.174 256.519ZM197.177 256.483C197.179 256.464 197.18 256.446 197.182 256.428C197.18 256.446 197.179 256.464 197.177 256.483ZM197.182 256.424C197.183 256.415 197.184 256.404 197.185 256.395C197.184 256.404 197.183 256.415 197.182 256.424ZM197.185 256.388C197.237 255.779 197.274 255.161 197.293 254.536C197.274 255.161 197.237 255.779 197.185 256.388ZM197.293 254.535C197.294 254.49 197.296 254.444 197.297 254.399C197.296 254.444 197.294 254.489 197.293 254.535ZM197.298 254.392C197.298 254.361 197.299 254.325 197.3 254.293C197.299 254.326 197.298 254.36 197.298 254.392ZM197.3 254.29C197.3 254.28 197.3 254.27 197.3 254.26C197.3 254.27 197.3 254.28 197.3 254.29ZM197.301 254.25C197.302 254.219 197.302 254.188 197.303 254.158C197.302 254.188 197.302 254.219 197.301 254.25ZM197.303 254.148C197.303 254.14 197.303 254.129 197.303 254.12C197.303 254.13 197.303 254.139 197.303 254.148ZM197.303 254.108C197.304 254.079 197.304 254.05 197.305 254.021C197.304 254.05 197.304 254.079 197.303 254.108ZM197.305 254.005C197.306 253.997 197.306 253.99 197.306 253.981C197.306 253.989 197.305 253.998 197.305 254.005ZM197.306 253.962C197.306 253.954 197.306 253.943 197.307 253.934C197.306 253.943 197.306 253.953 197.306 253.962ZM197.307 253.904C197.307 253.897 197.307 253.89 197.307 253.882C197.307 253.89 197.307 253.897 197.307 253.904ZM197.308 253.861C197.308 253.855 197.308 253.849 197.308 253.841C197.308 253.848 197.308 253.855 197.308 253.861ZM197.308 253.817C197.308 253.81 197.308 253.802 197.309 253.794C197.308 253.802 197.308 253.81 197.308 253.817ZM197.309 253.761C197.309 253.755 197.309 253.749 197.309 253.743C197.309 253.749 197.309 253.755 197.309 253.761ZM197.309 253.718C197.309 253.712 197.309 253.706 197.309 253.7C197.309 253.706 197.309 253.712 197.309 253.718ZM197.309 253.669C197.309 253.667 197.309 253.66 197.309 253.656C197.309 253.661 197.309 253.665 197.309 253.669ZM197.309 253.618C197.309 253.613 197.309 253.608 197.309 253.604C197.309 253.608 197.309 253.613 197.309 253.618ZM197.309 253.573C197.309 253.568 197.309 253.564 197.309 253.56C197.309 253.564 197.309 253.568 197.309 253.573ZM197.31 253.518V253.516C197.31 253.517 197.31 253.517 197.31 253.518ZM197.31 253.474C197.31 253.471 197.31 253.465 197.31 253.463C197.31 253.466 197.31 253.47 197.31 253.474ZM197.31 253.429C197.31 253.426 197.31 253.421 197.31 253.418C197.31 253.422 197.31 253.425 197.31 253.429ZM197.31 253.375C197.31 253.373 197.31 253.373 197.31 253.371C197.31 253.373 197.31 253.374 197.31 253.375ZM197.309 253.331C197.309 253.327 197.309 253.323 197.309 253.319C197.309 253.323 197.309 253.327 197.309 253.331ZM197.309 253.285C197.309 253.281 197.309 253.278 197.309 253.276C197.309 253.279 197.309 253.281 197.309 253.285ZM197.309 253.232C197.309 253.23 197.309 253.227 197.309 253.226C197.309 253.228 197.309 253.23 197.309 253.232ZM197.309 253.188C197.309 253.183 197.309 253.181 197.309 253.177C197.309 253.181 197.309 253.184 197.309 253.188ZM197.309 253.138C197.309 253.136 197.309 253.136 197.309 253.133C197.309 253.135 197.309 253.137 197.309 253.138ZM197.309 253.088C197.309 253.086 197.309 253.085 197.309 253.083C197.309 253.085 197.309 253.086 197.309 253.088ZM197.308 253.044C197.308 253.04 197.308 253.037 197.308 253.033C197.308 253.037 197.308 253.04 197.308 253.044ZM197.307 252.992V252.99C197.307 252.99 197.307 252.991 197.307 252.992ZM197.307 252.944C197.307 252.941 197.307 252.94 197.307 252.938C197.307 252.94 197.307 252.942 197.307 252.944ZM197.306 252.899C197.306 252.896 197.306 252.893 197.306 252.89C197.306 252.893 197.306 252.896 197.306 252.899ZM197.304 252.8C197.304 252.798 197.304 252.795 197.304 252.794C197.304 252.796 197.304 252.798 197.304 252.8ZM197.303 252.756C197.303 252.752 197.303 252.749 197.303 252.745C197.303 252.748 197.303 252.752 197.303 252.756ZM197.302 252.657C197.302 252.653 197.302 252.649 197.301 252.647C197.302 252.65 197.302 252.653 197.302 252.657ZM197.301 252.612C197.3 252.609 197.3 252.603 197.3 252.6C197.3 252.604 197.3 252.609 197.301 252.612Z" fill="#2459E8"/>
<path d="M195.591 263.888C196.061 261.567 196.274 259.11 196.211 256.515C196.206 256.274 196.198 256.034 196.188 255.793C196.684 254.001 197.021 252.123 197.188 250.156C197.243 250.959 197.279 251.759 197.299 252.556C197.299 252.57 197.3 252.585 197.3 252.599C197.3 252.603 197.3 252.608 197.301 252.611C197.301 252.623 197.301 252.634 197.301 252.646C197.301 252.648 197.301 252.653 197.301 252.656C197.301 252.686 197.302 252.714 197.303 252.744C197.303 252.748 197.303 252.751 197.303 252.755C197.303 252.768 197.304 252.78 197.304 252.793C197.304 252.794 197.304 252.797 197.304 252.799C197.305 252.829 197.305 252.859 197.306 252.89C197.306 252.892 197.306 252.895 197.306 252.898C197.306 252.912 197.306 252.924 197.307 252.937C197.307 252.939 197.307 252.94 197.307 252.943C197.307 252.959 197.307 252.973 197.307 252.989V252.991C197.307 253.005 197.307 253.019 197.307 253.033C197.307 253.036 197.307 253.039 197.307 253.043C197.307 253.056 197.307 253.069 197.308 253.083C197.308 253.084 197.308 253.085 197.308 253.087C197.308 253.102 197.308 253.117 197.308 253.132C197.308 253.135 197.308 253.135 197.308 253.138C197.308 253.15 197.308 253.163 197.309 253.176C197.309 253.18 197.309 253.182 197.309 253.187C197.309 253.199 197.309 253.213 197.309 253.226C197.309 253.226 197.309 253.229 197.309 253.231C197.309 253.245 197.309 253.26 197.309 253.275C197.309 253.277 197.309 253.281 197.309 253.284C197.309 253.295 197.309 253.307 197.309 253.318C197.309 253.322 197.309 253.326 197.309 253.331C197.309 253.344 197.31 253.358 197.31 253.37C197.31 253.372 197.31 253.372 197.31 253.374C197.31 253.388 197.31 253.402 197.31 253.417C197.31 253.42 197.31 253.425 197.31 253.428C197.31 253.439 197.31 253.451 197.31 253.462C197.31 253.464 197.31 253.47 197.31 253.473C197.31 253.487 197.31 253.502 197.31 253.515V253.517C197.31 253.531 197.309 253.545 197.309 253.559C197.309 253.563 197.309 253.568 197.309 253.572C197.309 253.582 197.309 253.593 197.309 253.603C197.309 253.607 197.309 253.612 197.309 253.617C197.309 253.629 197.309 253.643 197.309 253.656C197.309 253.659 197.309 253.666 197.309 253.668C197.309 253.678 197.309 253.689 197.309 253.7C197.308 253.706 197.308 253.711 197.308 253.717C197.308 253.726 197.308 253.733 197.308 253.742C197.308 253.748 197.308 253.755 197.308 253.761C197.308 253.772 197.308 253.783 197.308 253.794C197.307 253.801 197.307 253.81 197.307 253.816C197.307 253.825 197.307 253.832 197.307 253.84C197.307 253.848 197.307 253.854 197.307 253.86C197.307 253.868 197.307 253.875 197.307 253.882C197.307 253.889 197.307 253.896 197.307 253.904C197.307 253.913 197.307 253.923 197.307 253.933C197.306 253.943 197.306 253.953 197.306 253.961C197.306 253.968 197.306 253.974 197.306 253.981C197.306 253.989 197.306 253.996 197.305 254.004C197.305 254.009 197.305 254.015 197.305 254.02C197.304 254.049 197.304 254.078 197.303 254.108C197.303 254.111 197.303 254.115 197.303 254.119C197.303 254.128 197.303 254.139 197.302 254.147C197.302 254.151 197.302 254.153 197.302 254.157C197.301 254.187 197.301 254.218 197.301 254.249C197.301 254.252 197.301 254.256 197.3 254.259C197.3 254.269 197.3 254.279 197.3 254.29C197.3 254.29 197.3 254.291 197.3 254.292C197.299 254.324 197.298 254.36 197.297 254.391C197.296 254.394 197.296 254.395 197.296 254.398C197.296 254.443 197.294 254.489 197.293 254.534C197.293 254.534 197.293 254.534 197.293 254.535C197.274 255.161 197.237 255.778 197.185 256.387C197.185 256.39 197.185 256.391 197.185 256.394C197.184 256.403 197.183 256.414 197.182 256.423C197.182 256.425 197.181 256.426 197.181 256.427C197.18 256.445 197.179 256.463 197.177 256.482C197.176 256.486 197.176 256.49 197.175 256.495C197.175 256.501 197.175 256.512 197.174 256.518C197.173 256.524 197.173 256.529 197.172 256.535C197.171 256.542 197.17 256.55 197.17 256.557C197.169 256.567 197.169 256.576 197.168 256.586C197.167 256.593 197.166 256.6 197.165 256.607C197.164 256.616 197.164 256.626 197.163 256.634C197.163 256.638 197.162 256.645 197.161 256.649C197.16 256.659 197.159 256.669 197.158 256.678C197.158 256.682 197.158 256.686 197.158 256.69C197.156 256.704 197.155 256.718 197.153 256.732V256.733C197.153 256.747 197.151 256.761 197.149 256.775C197.149 256.776 197.149 256.779 197.149 256.781C196.902 259.295 196.375 261.665 195.591 263.888Z" fill="#2459E8"/>
<path d="M186.538 249.506C186.71 256.633 184.735 264.356 178.406 270.441C171.939 276.664 160.924 281.178 142.999 281.61H142.997C125.26 282.039 114.088 278.148 107.305 272.35C100.524 266.555 98.1314 258.849 97.957 251.644C97.9215 250.181 98.0078 248.739 98.2076 247.337C99.9589 234.924 110.474 225.239 123.416 224.926C130.495 224.755 136.989 227.42 141.796 231.886C146.386 227.193 152.741 224.218 159.819 224.047C172.601 223.739 183.456 232.671 185.986 244.753V244.755C186.311 246.291 186.498 247.88 186.538 249.506Z" fill="#EAEFFF"/>
<path d="M148.893 252.019C148.946 254.24 146.053 256.98 142.405 257.068C138.757 257.156 135.735 254.559 135.681 252.338C135.627 250.118 138.563 249.115 142.211 249.027C145.859 248.939 148.839 249.799 148.893 252.019Z" fill="#11296B"/>
<path d="M142.343 252.093C140.916 252.093 139.767 251.518 139.754 251.013C139.741 250.494 140.941 250.247 142.426 250.211C142.542 250.208 142.657 250.207 142.77 250.207C144.094 250.207 145.121 250.404 145.133 250.884C145.146 251.402 143.957 252.056 142.471 252.091C142.429 252.092 142.386 252.093 142.343 252.093Z" fill="#2459E8"/>
<path d="M133.154 251.162C132.232 258.911 126.057 260.877 118.015 264.338C112.969 266.507 109.534 269.625 107.305 272.349C100.524 266.554 98.1314 258.848 97.957 251.643C97.9215 250.18 98.0078 248.738 98.2076 247.336C102.872 242.248 110.315 237.291 121.229 238.338C129.216 239.107 133.817 245.6 133.154 251.162Z" fill="#6F96FF"/>
<path d="M186.538 249.506C186.71 256.633 184.735 264.356 178.406 270.441C176.044 267.877 172.511 265.022 167.487 263.144C159.288 260.076 153.027 258.41 151.73 250.714C150.801 245.191 155.082 238.483 163.022 237.33C173.535 235.804 181.067 240.068 185.986 244.752V244.755C186.311 246.291 186.498 247.88 186.538 249.506Z" fill="#6F96FF"/>
<path d="M173.615 249.091C173.358 249.446 173.152 249.698 172.9 249.968C172.662 250.237 172.397 250.47 172.134 250.71C171.872 250.951 171.585 251.155 171.301 251.371C171.013 251.578 170.707 251.76 170.406 251.953C169.171 252.672 167.78 253.174 166.324 253.409C165.602 253.554 164.852 253.555 164.115 253.565C163.374 253.496 162.633 253.455 161.923 253.238C160.484 252.912 159.177 252.198 158.091 251.296C157.464 250.777 157.379 249.848 157.899 249.222C158.195 248.865 158.625 248.684 159.056 248.691L159.328 248.696C159.631 248.703 159.917 248.732 160.195 248.763C160.474 248.792 160.738 248.856 161.014 248.847C161.285 248.86 161.549 248.881 161.809 248.908C162.067 248.947 162.331 248.909 162.585 248.928C163.093 248.968 163.599 248.908 164.096 248.912C164.595 248.85 165.092 248.841 165.589 248.744C166.583 248.598 167.586 248.366 168.605 248.045L169.373 247.796C169.624 247.697 169.892 247.62 170.147 247.52C170.412 247.432 170.666 247.326 170.929 247.23C171.182 247.139 171.467 247.012 171.679 246.961L172.118 246.854C172.888 246.668 173.663 247.142 173.849 247.911C173.951 248.335 173.851 248.764 173.615 249.091Z" fill="#11296B"/>
<path d="M112.434 248.391C112.648 248.432 112.938 248.545 113.196 248.624C113.463 248.707 113.722 248.801 113.99 248.876C114.25 248.964 114.522 249.027 114.777 249.113L115.556 249.326C116.589 249.598 117.603 249.78 118.603 249.879C119.104 249.951 119.6 249.936 120.102 249.974C120.598 249.945 121.106 249.982 121.612 249.917C121.864 249.886 122.131 249.911 122.386 249.86C122.644 249.82 122.907 249.787 123.176 249.76C123.454 249.757 123.714 249.68 123.99 249.636C124.268 249.592 124.551 249.55 124.853 249.529L125.119 249.51C125.93 249.454 126.634 250.066 126.69 250.877C126.722 251.34 126.531 251.773 126.216 252.066C125.174 253.019 123.903 253.796 122.481 254.191C121.783 254.441 121.044 254.518 120.307 254.623C119.57 254.648 118.822 254.684 118.093 254.573C116.628 254.409 115.214 253.975 113.946 253.317C113.636 253.138 113.322 252.971 113.024 252.778C112.73 252.576 112.434 252.386 112.159 252.157C111.885 251.931 111.61 251.71 111.359 251.454C111.095 251.196 110.876 250.954 110.602 250.612C110.106 249.995 110.205 249.092 110.823 248.596C111.161 248.324 111.586 248.231 111.983 248.305L112.434 248.391Z" fill="#11296B"/>
<path d="M150.058 262.424C149.527 262.941 149.008 263.307 148.433 263.676C147.86 264.022 147.261 264.336 146.627 264.586C145.368 265.095 143.987 265.399 142.558 265.411C141.103 265.416 139.71 265.101 138.451 264.584C137.82 264.325 137.222 264.009 136.65 263.658C136.078 263.287 135.563 262.918 135.035 262.404C134.619 261.998 134.61 261.332 135.015 260.916C135.301 260.622 135.716 260.531 136.082 260.645L136.211 260.685C136.71 260.84 137.276 261.052 137.809 261.206C138.347 261.379 138.888 261.516 139.419 261.643C140.484 261.896 141.529 262.035 142.527 262.028C143.547 262.012 144.605 261.867 145.673 261.621C146.207 261.498 146.751 261.366 147.288 261.198C147.825 261.052 148.393 260.845 148.892 260.699L149.029 260.659C149.587 260.496 150.171 260.817 150.334 261.374C150.447 261.761 150.327 262.161 150.058 262.424Z" fill="#11296B"/>
<path d="M152.048 190.219C151.84 190.219 151.466 190.285 151.232 190.709C148.046 196.493 142.295 200.457 138.032 202.765C137.87 202.853 137.691 202.906 137.508 202.922C104.403 205.831 89.9252 232.027 90.483 255.134C91.1 280.703 118.561 289.159 144.055 288.54C169.547 287.924 196.567 278.156 195.949 252.588C195.566 236.708 187.755 216.459 166.981 207.25C166.398 206.992 166.075 206.361 166.206 205.738C166.996 201.971 167.608 197.672 167.63 195.738C167.637 195.09 167.176 194.818 166.978 194.731C166.821 194.663 166.27 194.475 165.774 194.941C164.026 196.588 159.043 199.424 154.962 201.528C154.468 201.784 153.867 201.709 153.449 201.34C153.031 200.971 152.882 200.384 153.075 199.861C154.447 196.13 153.808 193.317 152.912 190.831C152.728 190.324 152.299 190.236 152.123 190.223C152.101 190.221 152.076 190.219 152.048 190.219ZM141.242 291.276C108.717 291.276 88.3228 277.603 87.782 255.2C87.1962 230.936 102.348 203.44 136.989 200.256C140.906 198.105 146.054 194.509 148.866 189.404C149.567 188.134 150.896 187.414 152.336 187.529C153.769 187.642 154.963 188.556 155.453 189.915C156.228 192.063 156.884 194.602 156.417 197.7C160.039 195.726 162.909 193.928 163.921 192.975C165.054 191.908 166.641 191.634 168.062 192.256C169.478 192.876 170.347 194.222 170.332 195.767C170.31 197.701 169.79 201.552 169.066 205.232C178.146 209.496 185.671 216.366 190.873 225.158C195.727 233.361 198.416 242.823 198.651 252.523C199.207 275.579 178.312 290.416 144.12 291.241C143.152 291.265 142.19 291.276 141.242 291.276Z" fill="#11296B"/>
<path d="M64.6094 259.303C64.6199 258.4 64.6303 257.517 64.6407 256.658C64.6416 256.657 64.6426 256.657 64.6436 256.656L64.6094 259.303Z" fill="#11296B"/>
<path d="M64.5273 265.857L64.5341 265.362C64.5524 265.521 64.5533 265.687 64.5273 265.857Z" fill="#11296B"/>
<path d="M237.173 287.504C237.173 287.504 256.611 287.442 260.545 287.504C264.479 287.566 257.445 274.394 250.353 272.07C239.803 268.612 237.173 287.504 237.173 287.504Z" fill="white"/>
<path d="M261.674 286.056C261.673 286.056 261.675 286.056 261.674 286.056C261.672 285.986 261.668 285.915 261.661 285.842C261.668 285.915 261.672 285.986 261.674 286.056Z" fill="#6F96FF"/>
<path d="M260.574 287.506C260.565 287.506 260.556 287.506 260.546 287.506C259.235 287.484 256.201 287.477 252.738 287.477C251.032 287.477 249.222 287.479 247.463 287.482C247.464 287.482 247.465 287.482 247.465 287.481C249.223 287.479 251.032 287.477 252.737 287.477C256.201 287.477 259.234 287.484 260.546 287.505C260.554 287.505 260.564 287.505 260.573 287.505C261.368 287.505 261.704 286.953 261.676 286.055C261.676 286.055 261.675 286.055 261.676 286.055C261.706 286.954 261.369 287.506 260.574 287.506Z" fill="#11296B"/>
<path d="M239.059 280.287C239.235 279.819 239.426 279.348 239.632 278.88C239.425 279.348 239.235 279.819 239.059 280.287Z" fill="#2459E8"/>
<path d="M237.413 286.135C237.683 284.775 238.199 282.57 239.059 280.287C238.199 282.571 237.684 284.775 237.414 286.135H237.413Z" fill="#6F96FF"/>
<path d="M237.171 287.506C237.171 287.506 237.243 286.987 237.412 286.135H237.413C237.245 286.985 237.173 287.505 237.173 287.505C237.173 287.505 242.081 287.489 247.464 287.481C247.464 287.482 247.463 287.482 247.462 287.482C242.079 287.49 237.171 287.506 237.171 287.506Z" fill="#11296B"/>
<path d="M260.572 287.504C260.564 287.504 260.554 287.504 260.545 287.504C259.233 287.484 256.2 287.477 252.737 287.477C251.032 287.477 249.222 287.479 247.464 287.481C242.081 287.489 237.173 287.504 237.173 287.504C237.173 287.504 237.245 286.985 237.413 286.135C237.683 284.775 238.198 282.571 239.058 280.287C239.234 279.819 239.424 279.348 239.631 278.88C239.633 278.876 239.634 278.872 239.636 278.868V278.867C240.935 275.921 242.841 273.107 245.564 272.071C245.129 272.785 244.739 273.541 244.391 274.309C242.461 278.571 245.344 283.461 250.003 283.886C253.642 284.218 257.912 284.633 261.529 285.061C261.595 285.337 261.64 285.596 261.662 285.835C261.668 285.911 261.673 285.984 261.675 286.055C261.703 286.953 261.367 287.505 260.572 287.504Z" fill="#BCCEFF"/>
<path d="M252.739 286.127C256.017 286.127 258.911 286.133 260.328 286.15C260.324 285.704 260.14 284.689 259.316 283.004C257.457 279.208 253.537 274.535 249.933 273.354C248.118 272.76 246.531 272.909 245.084 273.811C241.231 276.212 239.427 283.061 238.791 286.15C241.622 286.141 247.643 286.127 252.739 286.127ZM260.573 288.857C260.557 288.857 260.541 288.856 260.524 288.856C256.648 288.795 237.372 288.856 237.178 288.856C236.789 288.856 236.413 288.688 236.156 288.394C235.898 288.099 235.781 287.706 235.835 287.319C235.903 286.83 237.57 275.315 243.651 271.52C245.79 270.186 248.187 269.938 250.774 270.787C257.268 272.915 263.625 282.931 262.978 286.787C262.763 288.067 261.843 288.856 260.573 288.857Z" fill="#11296B"/>
<path d="M255.897 288.535C255.526 288.535 255.165 288.34 254.971 287.992C249.42 278.024 241.168 277.001 241.085 276.993C240.505 276.928 240.086 276.405 240.15 275.825C240.214 275.244 240.735 274.826 241.318 274.889C241.701 274.932 250.744 276.051 256.82 286.962C257.104 287.473 256.922 288.117 256.411 288.401C256.248 288.492 256.071 288.535 255.897 288.535Z" fill="#11296B"/>
<path d="M42.2717 289.991C41.6537 289.772 41.2989 289.505 41.2686 289.195C41.4713 289.482 41.8427 289.721 42.3527 289.921C42.3257 289.945 42.2987 289.968 42.2717 289.991Z" fill="#11296B"/>
<path d="M39.3304 284.535C37.397 282.759 33.7662 278.67 33.1807 272.591C33.7664 278.668 37.3961 282.758 39.33 284.533L39.3304 284.535Z" fill="#6F96FF"/>
<path d="M40.5391 285.54C40.5391 285.54 40.0537 285.199 39.3304 284.535L39.3301 284.533C40.0409 285.186 40.5226 285.527 40.5399 285.539C40.5394 285.539 40.5391 285.54 40.5391 285.54Z" fill="#11296B"/>
<path d="M33.18 272.587C33.1796 272.582 33.1791 272.579 33.1787 272.574C33.1791 272.578 33.1796 272.583 33.18 272.587ZM33.1768 272.553C33.1767 272.552 33.1763 272.549 33.1762 272.547C33.1764 272.549 33.1766 272.552 33.1768 272.553ZM33.174 272.524C33.174 272.523 33.1738 272.522 33.1738 272.522C33.1739 272.522 33.1739 272.523 33.174 272.524Z" fill="#6F96FF"/>
<rect x="35.4561" y="235.194" width="30.4889" height="62.2482" rx="4" transform="rotate(-5 35.4561 235.194)" fill="white"/>
<path d="M37.2906 259.832C37.177 259.842 37.098 259.812 37.0223 259.818C36.675 259.774 36.5927 259.706 36.5222 259.336C36.3898 258.258 36.2606 257.217 36.1281 256.139C36.1118 255.953 36.0955 255.767 36.0413 255.583C35.9643 255.139 36.0962 254.902 36.5094 254.829C36.7712 254.768 36.8404 254.687 36.783 254.467C36.7732 254.355 36.7634 254.243 36.7504 254.094C36.7654 253.829 36.6799 253.724 36.3737 253.713C35.9918 253.709 35.9246 253.377 35.8606 253.082C35.7673 252.451 35.6707 251.784 35.6153 251.15C35.5728 250.665 35.4926 250.184 35.4502 249.699C35.4078 249.214 35.5018 248.981 35.9842 248.826C36.1703 248.772 36.2395 248.691 36.2232 248.504C36.171 247.908 36.122 247.348 36.0666 246.714C35.953 246.724 35.8394 246.734 35.7258 246.744C35.5332 246.723 35.4477 246.618 35.4347 246.469C35.389 245.947 35.3055 245.428 35.3009 244.94C35.2748 244.642 35.2455 244.306 35.7377 244.263C35.7756 244.26 35.8794 244.138 35.8696 244.026C35.8977 243.911 35.8533 243.84 35.8435 243.728C35.7717 242.908 35.7378 242.084 35.6661 241.264C35.6367 240.928 35.5695 240.596 35.5369 240.223C35.4749 239.515 35.3339 238.776 35.4612 238.051C35.6931 236.34 36.6078 235.02 38.2627 234.311C38.6316 234.166 39.0383 234.018 39.4515 233.944C41.4322 233.471 43.4736 233.254 45.5216 233.113C47.0015 233.021 48.4469 232.97 49.9138 232.729C51.4943 232.478 53.0879 232.376 54.6436 232.277C56.0824 232.151 57.5212 232.025 58.9731 232.049C60.1567 232.058 61.3272 231.918 62.4697 231.893C63.8772 231.845 65.0274 232.346 65.9237 233.432C67.0289 234.725 67.3552 236.275 67.4197 237.885C67.421 238.335 67.5013 238.817 67.5404 239.264C68.6254 251.23 69.7516 263.229 70.8366 275.195C71.2672 280.117 71.6945 285.001 72.1251 289.923C72.2067 290.855 72.1368 291.801 71.8364 292.729C71.5955 293.463 71.1933 294.1 70.671 294.671C69.7994 295.612 68.7307 296.044 67.4812 296.153C64.1459 296.407 60.7695 296.627 57.4342 296.882C53.6791 297.135 49.8862 297.392 46.1343 297.682C45.7178 297.719 45.3013 297.755 44.8816 297.754C43.8938 297.803 43.0217 297.429 42.3193 296.814C41.3257 295.924 40.7324 294.811 40.5425 293.513C40.4296 292.658 40.3545 291.801 40.2795 290.943C39.31 280.733 38.3783 270.52 37.4087 260.311C37.3167 260.131 37.3036 259.982 37.2906 259.832ZM39.7565 267.958C39.7944 267.954 39.7944 267.954 39.7565 267.958C40.2739 273.435 40.7156 278.92 41.2297 284.36C41.4972 287.418 41.8437 290.506 42.1112 293.563C42.183 294.384 42.6105 294.91 43.2555 295.304C44.3875 296.032 45.6285 296.261 46.9505 296.108C47.9695 295.981 48.9507 295.858 49.9731 295.768C52.3206 295.563 54.6747 295.432 57.0256 295.264C60.2884 295.054 63.5101 294.81 66.773 294.599C67.685 294.557 68.4129 294.155 69.0011 293.465C70.0046 292.288 70.3415 290.906 70.211 289.414C70.059 288.112 69.8691 286.814 69.7549 285.509C68.9427 276.225 68.1304 266.941 67.2803 257.66C66.6422 250.802 66.1555 243.932 65.366 237.088C65.2042 235.674 64.4313 234.69 63.1263 234.165C61.8213 233.641 60.4798 233.57 59.1264 233.801C58.9025 233.858 58.909 233.933 58.8875 234.123C58.8672 234.763 58.6511 235.346 58.2359 235.833C58.0942 235.958 57.9147 236.086 57.7286 236.14C57.1261 236.23 56.5613 236.317 55.9555 236.37C55.0846 236.447 54.2105 236.486 53.3364 236.524C51.705 236.63 50.0735 236.735 48.4832 236.874C47.2716 236.98 46.0847 236.933 44.8829 237.151C44.7693 237.161 44.6557 237.171 44.5767 237.141C43.8821 237.051 43.1321 236.328 43.0289 235.585C43.0061 235.324 42.886 235.26 42.6556 235.242C41.5033 235.155 40.3674 235.254 39.2706 235.801C37.9564 236.48 37.1671 237.488 37.0672 238.962C37.0123 239.643 37.0364 240.355 37.2087 241.016C37.5501 242.301 37.6675 243.644 37.7817 244.949C38.4504 252.592 39.0845 260.277 39.7565 267.958ZM50.684 234.991C50.684 234.991 50.6808 234.953 50.684 234.991C52.0817 234.831 53.4827 234.708 54.8458 234.589C55.0351 234.572 55.2212 234.519 55.2016 234.295C55.182 234.071 54.9895 234.05 54.8001 234.067C54.7244 234.074 54.6108 234.083 54.5351 234.09C53.8157 234.153 53.093 234.179 52.4114 234.238C50.6318 234.394 48.8522 234.55 47.0726 234.705C46.8454 234.725 46.6561 234.742 46.4322 234.799C46.2807 234.812 46.0124 234.798 46.0352 235.059C46.0581 235.32 46.3199 235.26 46.4713 235.246C46.5849 235.237 46.6985 235.227 46.7742 235.22C48.1406 235.138 49.4312 235.063 50.684 234.991Z" fill="#11296B"/>
<path d="M55.6985 260.246C54.2383 258.01 51.4769 256.626 48.448 256.891C48.3031 256.904 48.1595 256.92 48.0173 256.94C49.2695 255.76 50.9609 254.965 52.8711 254.798C55.8678 254.536 58.6026 255.888 60.0746 258.082L61.4231 257.413L61.0787 265.037L54.1014 261.043L55.6985 260.246Z" fill="#0D1F3C"/>
<path d="M51.4646 263.329C52.9248 265.565 55.6861 266.95 58.7151 266.685C58.86 266.672 59.0036 266.656 59.1458 266.636C57.8936 267.816 56.2021 268.611 54.2919 268.778C51.2952 269.04 48.5605 267.688 47.0885 265.494L45.74 266.162L46.0844 258.539L53.0616 262.532L51.4646 263.329Z" fill="#36416A"/>
<path d="M36.5817 262.208C33.8151 268.025 33.7282 273.487 36.3267 278.453C37.7175 281.112 39.5342 282.928 40.5474 283.812C44.3064 280.752 51.5167 273.757 50.3508 269.271C49.1308 264.578 39.4323 262.505 36.5817 262.208ZM40.5738 287.213L39.7644 286.646C39.6266 286.55 26.0703 276.783 34.5424 260.235C35.0076 259.326 35.9552 259.43 36.8713 259.531C37.0126 259.546 51.0369 261.171 52.9658 268.591C54.8986 276.028 42.7511 285.553 41.3596 286.614L40.5738 287.213Z" fill="#11296B"/>
<path d="M35.7448 260.85C35.8995 260.548 49.9541 262.375 51.6582 268.931C53.4211 275.713 40.5402 285.539 40.5402 285.539C40.5402 285.539 27.7107 276.542 35.7448 260.85Z" fill="white"/>
<path d="M40.5396 285.539C40.5223 285.526 40.0406 285.186 39.3297 284.533C37.3958 282.757 33.7661 278.668 33.1804 272.59C33.1803 272.59 33.1801 272.588 33.18 272.588C33.1796 272.583 33.1792 272.578 33.1788 272.574C33.1781 272.567 33.1774 272.56 33.1768 272.553C33.1766 272.551 33.1764 272.549 33.1761 272.547C33.1754 272.538 33.1747 272.531 33.1739 272.523C33.1738 272.522 33.1738 272.521 33.1738 272.521C33.0073 270.718 33.109 268.741 33.6016 266.599C33.6118 266.678 33.6225 266.759 33.6339 266.838C34.332 271.758 38.5019 274.738 42.7994 274.738C45.1721 274.738 47.5833 273.83 49.4714 271.839C50.2835 270.983 51.0503 270.09 51.7148 269.182C53.0967 275.923 40.6521 285.453 40.5396 285.539Z" fill="#BCCEFF"/>
<path d="M34.528 279.17C33.8843 279.17 33.3143 278.708 33.1992 278.052C33.0705 277.317 33.5619 276.617 34.2964 276.488C34.3848 276.472 43.2132 274.88 51.047 270.024C51.6809 269.631 52.5138 269.825 52.9071 270.46C53.3004 271.094 53.1048 271.927 52.4709 272.32C44.1787 277.461 35.1428 279.083 34.7623 279.15C34.6836 279.163 34.6053 279.17 34.528 279.17Z" fill="#11296B"/>
<path d="M51.7583 270.781C51.6333 270.781 51.5064 270.764 51.3804 270.727C44.176 268.632 33.5685 268.605 33.4621 268.605C32.716 268.605 32.1113 268 32.1113 267.254C32.1113 266.508 32.7162 265.903 33.4623 265.903C33.9117 265.903 44.557 265.928 52.1351 268.132C52.8515 268.34 53.2634 269.09 53.0548 269.806C52.8831 270.397 52.3437 270.781 51.7583 270.781Z" fill="#11296B"/>
</svg>
