<svg width="65" height="65" viewBox="0 0 65 65" fill="none" xmlns="http://www.w3.org/2000/svg">
<path d="M1.29595 21.5971L1.53865 21.8398C2.54719 22.8484 4.16246 22.8953 5.23052 21.9509C12.4998 15.5173 22.0517 11.6067 32.5 11.6067C42.9483 11.6067 52.5002 15.5173 59.7695 21.9509C60.8375 22.8953 62.4528 22.8484 63.4613 21.8398L63.7041 21.5971C64.803 20.4981 64.7607 18.6917 63.5976 17.6626C55.3106 10.32 44.417 5.85658 32.5 5.85658C20.583 5.85658 9.6894 10.32 1.40243 17.6626C0.239349 18.6917 0.196973 20.4981 1.29595 21.5971Z" fill="#FAA9A3"/>
<path d="M32.5001 37.4796C29.4688 37.4796 26.6401 38.3645 24.2578 39.8894C22.7982 40.8246 22.567 42.868 23.793 44.0941L24.0369 44.3379C24.9527 45.2537 26.3619 45.3499 27.462 44.6665C28.9262 43.7564 30.6525 43.2298 32.5001 43.2298C34.3478 43.2298 36.0741 43.7564 37.5383 44.6665C38.6384 45.3499 40.0476 45.2537 40.9634 44.3379L41.2072 44.0941C42.4333 42.868 42.202 40.8246 40.7424 39.8894C38.3613 38.3645 35.5315 37.4796 32.5001 37.4796Z" fill="#FAA9A3"/>
<path d="M32.5001 26.9363C26.4729 26.9363 20.9208 29.0083 16.518 32.477C15.2313 33.4912 15.0859 35.387 16.2444 36.5455L16.4882 36.7893C17.4429 37.744 18.9724 37.8665 20.0313 37.0286C23.461 34.3109 27.7951 32.6865 32.5001 32.6865C37.2062 32.6865 41.5391 34.3109 44.9689 37.0286C46.0278 37.8665 47.5572 37.744 48.513 36.7893L48.7558 36.5455C49.9143 35.387 49.7689 33.4912 48.4821 32.477C44.0794 29.0083 38.5273 26.9363 32.5001 26.9363Z" fill="#FAA9A3"/>
<path d="M32.5001 16.376C23.4908 16.376 15.2336 19.6649 8.86757 25.1037C7.68159 26.1179 7.64266 27.9438 8.74622 29.0474L8.99121 29.2924C9.99403 30.2952 11.5876 30.3364 12.6682 29.4183C18.0189 24.8724 24.9447 22.1273 32.5001 22.1273C40.0556 22.1273 46.9814 24.8724 52.3332 29.4183C53.4139 30.3364 55.0074 30.2952 56.009 29.2924L56.2552 29.0462C57.3576 27.9438 57.3186 26.1168 56.1327 25.1037C49.7666 19.6637 41.5106 16.376 32.5001 16.376Z" fill="#FAA9A3"/>
<path d="M37.6916 53.2374C37.6916 56.105 35.3678 58.4289 32.5001 58.4289C29.6336 58.4289 27.3086 56.105 27.3086 53.2374C27.3086 50.3709 29.6336 48.047 32.5001 48.047C35.3678 48.047 37.6916 50.3709 37.6916 53.2374Z" fill="#FAA9A3"/>
<path d="M59.9938 50.5105C59.7901 50.3079 59.7901 49.977 59.9938 49.7733L64.2329 45.5342C64.589 45.1782 64.589 44.6012 64.2329 44.2452L62.1105 42.1228C61.7557 41.7668 61.1775 41.7668 60.8215 42.1228L56.5825 46.363C56.3787 46.5656 56.049 46.5656 55.8452 46.363L51.605 42.1228C51.249 41.7668 50.672 41.7668 50.316 42.1228L48.1948 44.2452C47.8387 44.6012 47.8387 45.1782 48.1948 45.5342L52.4338 49.7733C52.6376 49.977 52.6376 50.3079 52.4338 50.5105L48.1948 54.7507C47.8387 55.1067 47.8387 55.6837 48.1948 56.0397L50.316 58.1621C50.672 58.5181 51.249 58.5181 51.605 58.1621L55.8452 53.9219C56.049 53.7181 56.3787 53.7181 56.5825 53.9219L60.8215 58.1621C61.1775 58.5181 61.7557 58.5181 62.1105 58.1621L64.2329 56.0397C64.589 55.6837 64.589 55.1067 64.2329 54.7507L59.9938 50.5105Z" fill="#F44336"/>
</svg>
