<svg width="160" height="131" viewBox="0 0 160 131" fill="none" xmlns="http://www.w3.org/2000/svg">
<g clip-path="url(#clip0_7953_9726)">
<path d="M159.094 50.034C158.839 50.4563 158.528 50.8556 158.163 51.2218L155.223 54.1602C155.059 54.3252 154.886 54.4802 154.708 54.6222C134.489 37.7015 108.572 25.4794 80.3169 25.4794C51.9215 25.4794 25.8888 37.8236 5.62717 54.8729C5.32695 54.665 5.0415 54.4258 4.77423 54.1585L1.83753 51.2218C1.56695 50.9513 1.3277 50.6643 1.11816 50.3606C1.4366 49.8343 1.83753 49.3444 2.32256 48.9121C23.0081 30.4438 50.2982 16.7453 80.2112 16.7453C110.124 16.7453 137.416 30.4438 158.102 48.9121C158.484 49.2536 158.816 49.6314 159.094 50.034Z" fill="#5381FF"/>
<path d="M159.094 50.034C157.657 52.1867 154.403 55.4406 152.356 55.8007C152.356 55.8007 149.424 56.6167 147.139 54.8395L153.437 48.113C154.351 47.1374 154.254 45.5885 153.218 44.7437C133.206 28.4197 107.826 16.7453 80.2108 16.7453C50.2978 16.7453 23.0077 30.4438 2.32216 48.9121C1.83713 49.3444 1.4362 49.8343 1.11776 50.3606C-0.664023 47.8017 -0.302694 44.2331 2.10933 42.0769C22.7949 23.6086 50.0849 12.3848 79.998 12.3848C109.911 12.3848 137.203 23.6086 157.89 42.0769C160.202 44.1408 160.63 47.5048 159.094 50.034Z" fill="#6F96FF"/>
<path d="M154.708 54.6221C152.352 56.5128 148.927 56.4764 146.62 54.4257C128.906 38.6698 105.571 29.0992 79.9981 29.0992C54.4273 29.0992 31.0922 38.6698 13.3778 54.4257C11.1787 56.3808 7.96314 56.5045 5.62695 54.8729C25.8886 37.8235 51.9213 25.4794 80.3167 25.4794C108.572 25.4794 134.489 37.7014 154.708 54.6221Z" fill="#5381FF"/>
<path d="M135.911 72.6763C135.607 73.4897 135.127 74.2552 134.469 74.9135L131.527 77.8567C131.352 78.0316 131.171 78.1934 130.981 78.3418C116.89 67.0982 99.2429 57.8162 80.0916 57.8162C60.9008 57.8162 43.2178 67.1395 29.1117 78.416C28.8873 78.2461 28.6729 78.0581 28.4699 77.8551L25.5299 74.9135C25.0086 74.3921 24.5994 73.8048 24.3008 73.1778C24.6605 72.2143 25.266 71.325 26.1091 70.609C40.6869 58.2138 59.5759 49.9102 80.2104 49.9102C100.848 49.9102 119.737 58.2138 134.315 70.609C135.01 71.1997 135.542 71.9074 135.911 72.6763Z" fill="#5381FF"/>
<path d="M135.911 72.6763C135.911 73.7096 130.998 79.2419 128.588 79.5157C128.588 79.5157 125.509 80.335 123.053 78.2346L129.596 70.1549C130.507 69.0295 130.298 67.367 129.131 66.5101C115.379 56.4176 98.4802 49.9102 80.2105 49.9102C59.576 49.9102 40.687 58.2138 26.1092 70.609C25.2661 71.325 24.6606 72.2142 24.3009 73.1777C23.1097 70.6866 23.664 67.5865 25.8963 65.6875C40.4758 53.2923 59.3648 45.8136 79.9976 45.8136C100.635 45.8136 119.524 53.2923 134.102 65.6859C136.188 67.4595 136.81 70.2807 135.911 72.6763Z" fill="#6F96FF"/>
<path d="M130.981 78.3418C128.677 80.1699 125.354 80.1731 123.054 78.2346C111.423 68.4313 96.4009 62.5281 79.9982 62.5281C63.5972 62.5281 48.5754 68.4313 36.9442 78.2346C34.6757 80.1467 31.4139 80.1699 29.1123 78.416C43.2184 67.1395 60.9015 57.8161 80.0922 57.8161C99.2435 57.8161 116.89 67.0982 130.981 78.3418Z" fill="#5381FF"/>
<path d="M112.254 96.1056C111.965 97.0476 111.446 97.9386 110.693 98.6909L107.966 101.418C100.035 95.8878 90.5243 91.3277 80.2969 91.3277C69.9193 91.3277 60.2778 96.0231 52.2794 101.664C52.2777 101.662 52.2777 101.662 52.276 101.661L49.3064 98.6892C48.7042 98.087 48.2505 97.3957 47.9453 96.6615C48.3198 95.4407 49.0721 94.3188 50.1857 93.4856C58.552 87.2228 68.9427 83.5141 80.1979 83.5141C91.4546 83.5141 101.844 87.2228 110.213 93.4839C111.155 94.1884 111.84 95.1008 112.254 96.1056Z" fill="#5381FF"/>
<path d="M112.254 96.1056C111.749 98.1729 107.24 102.603 105.525 103.084C105.525 103.084 103.281 104.21 100.231 102.699L106.185 95.0474C107.409 93.4748 106.95 91.1909 105.224 90.1951C97.8583 85.9458 89.3125 83.5141 80.1976 83.5141C68.9424 83.5141 58.5517 87.2229 50.1855 93.4857C49.0719 94.3188 48.3195 95.4407 47.945 96.6615C46.8776 94.0977 47.6035 90.9944 49.9858 89.2126C58.3521 82.9515 68.7429 79.2426 79.9979 79.2426C91.2548 79.2426 101.644 82.9515 110.013 89.2126C112.226 90.8674 113.01 93.6622 112.254 96.1056Z" fill="#6F96FF"/>
<path d="M107.966 101.418L107.722 101.662C105.529 103.855 102.079 104.096 99.5685 102.279C94.0696 98.2999 87.3086 95.9555 79.9981 95.9555C72.6927 95.9555 65.9317 98.2999 60.431 102.279C57.9201 104.094 54.4719 103.853 52.2793 101.664C60.2777 96.0231 69.9192 91.3277 80.2968 91.3277C90.5241 91.3277 100.035 95.8879 107.966 101.418Z" fill="#5381FF"/>
<path d="M73.2596 128.145C68.5682 124.3 67.8821 117.38 71.7269 112.689C75.5718 107.997 82.4917 107.311 87.183 111.156C91.8744 115.001 92.5606 121.921 88.7157 126.612C84.8709 131.304 77.9509 131.99 73.2596 128.145Z" fill="#5381FF"/>
<path d="M76.2534 120.006C73.6598 117.88 73.2806 114.055 75.4061 111.461C77.5317 108.867 81.3573 108.488 83.9509 110.614C86.5445 112.739 86.9239 116.565 84.7983 119.159C82.6727 121.752 78.847 122.132 76.2534 120.006Z" fill="#6F96FF"/>
<path d="M87.5668 127.836C88.1387 127.309 88.6395 126.735 89.0722 126.126C88.9874 125.631 88.7657 125.153 88.4004 124.756C87.3911 123.66 85.6838 123.589 84.5872 124.598C83.3195 125.765 81.6733 126.369 79.9516 126.297C78.23 126.226 76.6393 125.488 75.4723 124.221C74.463 123.124 72.7559 123.053 71.6593 124.063C71.5642 124.15 71.4768 124.243 71.3972 124.34C71.1445 124.648 70.9715 125.001 70.876 125.371C71.2567 126.014 71.7087 126.628 72.2351 127.2C76.2935 131.609 83.1576 131.894 87.5668 127.836Z" fill="#5381FF"/>
<path d="M152.84 26.368C152.84 40.931 141.035 52.7366 126.472 52.7366C111.909 52.7366 100.104 40.931 100.104 26.368C100.104 11.8051 111.909 -0.000518799 126.472 -0.000518799C141.035 -0.000518799 152.84 11.8051 152.84 26.368Z" fill="#F44336"/>
<path d="M131.13 26.2846L136.611 32.9815C137.334 33.7176 137.696 34.6029 137.696 35.638C137.696 36.6733 137.331 37.5553 136.602 38.285C135.872 39.0145 134.99 39.3793 133.955 39.3793C132.92 39.3793 132.04 39.0117 131.317 38.2756L126.472 32.1772L121.646 38.2756C120.91 39.0117 120.024 39.3793 118.989 39.3793C117.954 39.3793 117.072 39.0145 116.342 38.285C115.613 37.5553 115.248 36.6733 115.248 35.638C115.248 34.6029 115.616 33.7176 116.352 32.9815L121.814 26.2846L116.352 19.5689C115.616 18.8457 115.248 17.9665 115.248 16.9311C115.248 15.8961 115.613 15.0138 116.342 14.2841C117.072 13.5545 117.954 13.1898 118.989 13.1898C120.024 13.1898 120.91 13.5517 121.646 14.2748L126.472 20.3919L131.317 14.2748C132.04 13.5517 132.92 13.1898 133.955 13.1898C134.99 13.1898 135.872 13.5545 136.602 14.2841C137.331 15.0138 137.696 15.8961 137.696 16.9311C137.696 17.9665 137.334 18.8457 136.611 19.5689L131.13 26.2846Z" fill="white"/>
</g>
<defs>
<clipPath id="clip0_7953_9726">
<rect width="160" height="130.703" fill="white"/>
</clipPath>
</defs>
</svg>
