<svg width="64" height="64" viewBox="0 0 64 64" fill="none" xmlns="http://www.w3.org/2000/svg">
<path fill-rule="evenodd" clip-rule="evenodd" d="M31.9999 13.333C38.9435 13.333 44.5724 19.0815 44.5724 26.1725C44.5724 34.3626 46.5384 39.7819 50.2802 43.9865C50.4791 44.2101 50.6082 44.4892 50.6509 44.7882C50.7694 45.6176 50.207 46.388 49.3949 46.5089C42.7229 47.5028 36.9246 47.9997 31.9999 47.9997C27.0753 47.9997 21.2769 47.5028 14.6049 46.5089C14.3122 46.4653 14.0389 46.3335 13.8199 46.1303C13.2126 45.5666 13.1677 44.6068 13.7197 43.9865C17.4614 39.7819 19.4274 34.3626 19.4274 26.1725C19.4274 19.0815 25.0563 13.333 31.9999 13.333Z" fill="#DAE7FF"/>
<path d="M32 16C26.4772 16 22 20.4772 22 26" stroke="#7F7FFF" stroke-width="2" stroke-linecap="round" stroke-linejoin="round"/>
<path fill-rule="evenodd" clip-rule="evenodd" d="M25.3342 7.89169C25.3919 4.25959 28.3542 1.33301 32 1.33301C35.6458 1.33301 38.6081 4.25959 38.6658 7.89169C45.6832 10.5753 50.6667 17.3722 50.6667 25.333C50.6667 42.0573 60 41.2633 60 46.6663C60 51.1108 50.6667 53.333 32 53.333C13.3333 53.333 4 51.1108 4 46.6663C4 41.2633 13.3333 42.0573 13.3333 25.333C13.3333 17.3722 18.3168 10.5753 25.3342 7.89169Z" stroke="#0000FF" stroke-width="2" stroke-linecap="round" stroke-linejoin="round"/>
<path d="M26.6667 58.667C26.6667 60.8761 29.3642 62.667 32 62.667C34.6357 62.667 37.3333 60.8761 37.3333 58.667" stroke="#0000FF" stroke-width="2" stroke-linecap="round" stroke-linejoin="round"/>
</svg>
