<svg width="64" height="64" viewBox="0 0 64 64" fill="none" xmlns="http://www.w3.org/2000/svg">
<path fill-rule="evenodd" clip-rule="evenodd" d="M32.0001 13.3333C38.9437 13.3333 44.5726 19.0818 44.5726 26.1728C44.5726 34.3629 46.5386 39.7822 50.2803 43.9868C50.4793 44.2104 50.6084 44.4895 50.6511 44.7885C50.7695 45.6179 50.2072 46.3883 49.3951 46.5092C42.7231 47.5031 36.9247 48 32.0001 48C27.0754 48 21.2771 47.5031 14.6051 46.5092C14.3123 46.4656 14.039 46.3338 13.8201 46.1306C13.2127 45.5669 13.1678 44.6071 13.7198 43.9868C17.4616 39.7822 19.4276 34.3629 19.4276 26.1728C19.4276 19.0818 25.0565 13.3333 32.0001 13.3333Z" fill="#EBECF0"/>
<path d="M32 16C26.4772 16 22 20.4772 22 26" stroke="#78809B" stroke-width="2" stroke-linecap="round" stroke-linejoin="round"/>
<path fill-rule="evenodd" clip-rule="evenodd" d="M25.3342 7.892C25.3919 4.2599 28.3542 1.33331 32 1.33331C35.6458 1.33331 38.6081 4.2599 38.6658 7.892C45.6832 10.5756 50.6667 17.3725 50.6667 25.3333C50.6667 42.0576 60 41.2637 60 46.6666C60 51.1111 50.6667 53.3333 32 53.3333C13.3333 53.3333 4 51.1111 4 46.6666C4 41.2637 13.3333 42.0576 13.3333 25.3333C13.3333 17.3725 18.3168 10.5756 25.3342 7.892Z" stroke="#0D1F3C" stroke-width="2" stroke-linecap="round" stroke-linejoin="round"/>
<path d="M26.6665 58.6667C26.6665 60.8758 29.3641 62.6667 31.9998 62.6667C34.6356 62.6667 37.3332 60.8758 37.3332 58.6667" stroke="#0D1F3C" stroke-width="2" stroke-linecap="round" stroke-linejoin="round"/>
</svg>
