<svg width="64" height="64" viewBox="0 0 64 64" fill="none" xmlns="http://www.w3.org/2000/svg">
<path fill-rule="evenodd" clip-rule="evenodd" d="M60.9093 16.909C62.0345 18.0342 62.6667 19.5603 62.6667 21.1516V42.8477C62.6667 44.439 62.0345 45.9652 60.9093 47.0904L47.0907 60.909C45.9655 62.0342 44.4394 62.6663 42.8481 62.6663H21.152C19.5607 62.6663 18.0345 62.0342 16.9093 60.909L3.0907 47.0904C1.96548 45.9651 1.33334 44.439 1.33334 42.8477L1.33334 21.1516C1.33334 19.5603 1.96548 18.0342 3.0907 16.909L16.9093 3.09037C18.0345 1.96515 19.5607 1.33301 21.152 1.33301H42.8481C44.4394 1.33301 45.9655 1.96515 47.0907 3.09037L60.9093 16.909Z" stroke="#F44336" stroke-width="2" stroke-linecap="round" stroke-linejoin="round"/>
<path fill-rule="evenodd" clip-rule="evenodd" d="M56.1617 19.8143C56.9119 20.5644 57.3333 21.5818 57.3333 22.6427V41.358C57.3333 42.4188 56.9119 43.4362 56.1617 44.1864L44.1861 56.1621C43.4359 56.9122 42.4185 57.3337 41.3576 57.3337H22.6424C21.5815 57.3337 20.5641 56.9122 19.8139 56.1621L7.83823 44.1864C7.08809 43.4362 6.66666 42.4188 6.66666 41.358L6.66666 22.6427C6.66666 21.5818 7.08808 20.5644 7.83823 19.8143L19.8139 7.83857C20.5641 7.08842 21.5815 6.66699 22.6424 6.66699H41.3576C42.4185 6.66699 43.4359 7.08842 44.1861 7.83857L56.1617 19.8143Z" fill="#FEECEB"/>
<path d="M20 20L44 44" stroke="#F44336" stroke-width="2" stroke-linecap="round" stroke-linejoin="round"/>
<path d="M20 44L44 20" stroke="#F44336" stroke-width="2" stroke-linecap="round" stroke-linejoin="round"/>
</svg>
