<svg width="64" height="64" viewBox="0 0 64 64" fill="none" xmlns="http://www.w3.org/2000/svg">
<path d="M5.33333 23.9997V13.333C5.33333 8.91473 8.91505 5.33301 13.3333 5.33301H24" stroke="#0000FF" stroke-width="2" stroke-linecap="round" stroke-linejoin="round"/>
<path d="M40 5.33301H50.6667C55.0849 5.33301 58.6667 8.91473 58.6667 13.333V23.9997" stroke="#0000FF" stroke-width="2" stroke-linecap="round" stroke-linejoin="round"/>
<path d="M24 58.6667H13.3333C8.91505 58.6667 5.33333 55.0849 5.33333 50.6667V40" stroke="#0000FF" stroke-width="2" stroke-linecap="round" stroke-linejoin="round"/>
<path d="M58.6667 40V50.6667C58.6667 55.0849 55.0849 58.6667 50.6667 58.6667H40" stroke="#0000FF" stroke-width="2" stroke-linecap="round" stroke-linejoin="round"/>
<rect x="10.6667" y="10.667" width="42.6667" height="42.6667" rx="21.3333" fill="#DAE7FF"/>
<path d="M41.6832 19.4497C41.5499 19.4497 41.4166 19.4163 41.2999 19.3497C38.0999 17.6997 35.3332 16.9997 32.0166 16.9997C28.7166 16.9997 25.5832 17.783 22.7332 19.3497C22.3332 19.5663 21.8332 19.4163 21.5999 19.0163C21.3832 18.6163 21.5332 18.0997 21.9332 17.883C25.0332 16.1997 28.4332 15.333 32.0166 15.333C35.5666 15.333 38.6666 16.1163 42.0666 17.8663C42.4832 18.083 42.6332 18.583 42.4166 18.983C42.2666 19.283 41.9832 19.4497 41.6832 19.4497ZM17.8332 28.1997C17.6666 28.1997 17.4999 28.1497 17.3499 28.0497C16.9666 27.783 16.8832 27.2663 17.1499 26.883C18.7999 24.5497 20.8999 22.7163 23.3999 21.433C28.6332 18.733 35.3332 18.7163 40.5832 21.4163C43.0832 22.6997 45.1832 24.5163 46.8332 26.833C47.0999 27.1997 47.0166 27.733 46.6332 27.9997C46.2499 28.2663 45.7332 28.183 45.4666 27.7997C43.9666 25.6997 42.0666 24.0497 39.8166 22.8997C35.0332 20.4497 28.9166 20.4497 24.1499 22.9163C21.8832 24.083 19.9832 25.7497 18.4832 27.8497C18.3499 28.083 18.0999 28.1997 17.8332 28.1997ZM28.2499 48.3163C28.0332 48.3163 27.8166 48.233 27.6666 48.0663C26.2166 46.6163 25.4332 45.683 24.3166 43.6663C23.1666 41.6163 22.5666 39.1163 22.5666 36.433C22.5666 31.483 26.7999 27.4497 31.9999 27.4497C37.1999 27.4497 41.4332 31.483 41.4332 36.433C41.4332 36.8997 41.0666 37.2663 40.5999 37.2663C40.1332 37.2663 39.7666 36.8997 39.7666 36.433C39.7666 32.3997 36.2832 29.1163 31.9999 29.1163C27.7166 29.1163 24.2332 32.3997 24.2332 36.433C24.2332 38.833 24.7666 41.0497 25.7832 42.8497C26.8499 44.7663 27.5832 45.583 28.8666 46.883C29.1832 47.2163 29.1832 47.733 28.8666 48.0663C28.6832 48.233 28.4666 48.3163 28.2499 48.3163ZM40.1999 45.233C38.2166 45.233 36.4666 44.733 35.0332 43.7497C32.5499 42.0663 31.0666 39.333 31.0666 36.433C31.0666 35.9663 31.4332 35.5997 31.8999 35.5997C32.3666 35.5997 32.7332 35.9663 32.7332 36.433C32.7332 38.783 33.9332 40.9997 35.9666 42.3663C37.1499 43.1663 38.5332 43.5497 40.1999 43.5497C40.5999 43.5497 41.2666 43.4997 41.9332 43.383C42.3832 43.2997 42.8166 43.5997 42.8999 44.0663C42.9832 44.5163 42.6832 44.9497 42.2166 45.033C41.2666 45.2163 40.4332 45.233 40.1999 45.233ZM36.8499 48.6663C36.7832 48.6663 36.6999 48.6497 36.6332 48.633C33.9832 47.8997 32.2499 46.9163 30.4332 45.133C28.0999 42.8163 26.8166 39.733 26.8166 36.433C26.8166 33.733 29.1166 31.533 31.9499 31.533C34.7832 31.533 37.0832 33.733 37.0832 36.433C37.0832 38.2163 38.6332 39.6663 40.5499 39.6663C42.4666 39.6663 44.0166 38.2163 44.0166 36.433C44.0166 30.1497 38.5999 25.0497 31.9332 25.0497C27.1999 25.0497 22.8666 27.683 20.9166 31.7663C20.2666 33.1163 19.9332 34.6997 19.9332 36.433C19.9332 37.733 20.0499 39.783 21.0499 42.4497C21.2166 42.883 20.9999 43.3663 20.5666 43.5163C20.1332 43.683 19.6499 43.4497 19.4999 43.033C18.6832 40.8497 18.2832 38.683 18.2832 36.433C18.2832 34.433 18.6666 32.6163 19.4166 31.033C21.6332 26.383 26.5499 23.3663 31.9332 23.3663C39.5166 23.3663 45.6832 29.2163 45.6832 36.4163C45.6832 39.1163 43.3832 41.3163 40.5499 41.3163C37.7166 41.3163 35.4166 39.1163 35.4166 36.4163C35.4166 34.633 33.8666 33.183 31.9499 33.183C30.0332 33.183 28.4832 34.633 28.4832 36.4163C28.4832 39.2663 29.5832 41.933 31.5999 43.933C33.1832 45.4997 34.6999 46.3663 37.0499 47.0163C37.4999 47.133 37.7499 47.5997 37.6332 48.033C37.5499 48.4163 37.1999 48.6663 36.8499 48.6663Z" fill="#7F7FFF"/>
</svg>
