<svg width="64" height="64" viewBox="0 0 64 64" fill="none" xmlns="http://www.w3.org/2000/svg">
<path d="M5.3335 24V13.3333C5.3335 8.91503 8.91522 5.33331 13.3335 5.33331H24.0002" stroke="#0D1F3C" stroke-width="2" stroke-linecap="round" stroke-linejoin="round"/>
<path d="M40 5.33331H50.6667C55.0849 5.33331 58.6667 8.91503 58.6667 13.3333V24" stroke="#0D1F3C" stroke-width="2" stroke-linecap="round" stroke-linejoin="round"/>
<path d="M24.0002 58.6667H13.3335C8.91522 58.6667 5.3335 55.0849 5.3335 50.6667V40" stroke="#0D1F3C" stroke-width="2" stroke-linecap="round" stroke-linejoin="round"/>
<path d="M58.6667 40V50.6667C58.6667 55.0849 55.0849 58.6667 50.6667 58.6667H40" stroke="#0D1F3C" stroke-width="2" stroke-linecap="round" stroke-linejoin="round"/>
<rect x="10.6665" y="10.6667" width="42.6667" height="42.6667" rx="4" fill="#EBECF0"/>
<path d="M41.6832 19.45C41.5499 19.45 41.4166 19.4166 41.2999 19.35C38.0999 17.7 35.3332 17 32.0166 17C28.7166 17 25.5832 17.7833 22.7332 19.35C22.3332 19.5666 21.8332 19.4166 21.5999 19.0166C21.3832 18.6166 21.5332 18.1 21.9332 17.8833C25.0332 16.2 28.4332 15.3333 32.0166 15.3333C35.5666 15.3333 38.6666 16.1166 42.0666 17.8666C42.4832 18.0833 42.6332 18.5833 42.4166 18.9833C42.2666 19.2833 41.9832 19.45 41.6832 19.45ZM17.8332 28.2C17.6666 28.2 17.4999 28.15 17.3499 28.05C16.9666 27.7833 16.8832 27.2666 17.1499 26.8833C18.7999 24.55 20.8999 22.7166 23.3999 21.4333C28.6332 18.7333 35.3332 18.7166 40.5832 21.4166C43.0832 22.7 45.1832 24.5166 46.8332 26.8333C47.0999 27.2 47.0166 27.7333 46.6332 28C46.2499 28.2666 45.7332 28.1833 45.4666 27.8C43.9666 25.7 42.0666 24.05 39.8166 22.9C35.0332 20.45 28.9166 20.45 24.1499 22.9166C21.8832 24.0833 19.9832 25.75 18.4832 27.85C18.3499 28.0833 18.0999 28.2 17.8332 28.2ZM28.2499 48.3166C28.0332 48.3166 27.8166 48.2333 27.6666 48.0666C26.2166 46.6166 25.4332 45.6833 24.3166 43.6666C23.1666 41.6166 22.5666 39.1166 22.5666 36.4333C22.5666 31.4833 26.7999 27.45 31.9999 27.45C37.1999 27.45 41.4332 31.4833 41.4332 36.4333C41.4332 36.9 41.0666 37.2666 40.5999 37.2666C40.1332 37.2666 39.7666 36.9 39.7666 36.4333C39.7666 32.4 36.2832 29.1166 31.9999 29.1166C27.7166 29.1166 24.2332 32.4 24.2332 36.4333C24.2332 38.8333 24.7666 41.05 25.7832 42.85C26.8499 44.7666 27.5832 45.5833 28.8666 46.8833C29.1832 47.2166 29.1832 47.7333 28.8666 48.0666C28.6832 48.2333 28.4666 48.3166 28.2499 48.3166ZM40.1999 45.2333C38.2166 45.2333 36.4666 44.7333 35.0332 43.75C32.5499 42.0666 31.0666 39.3333 31.0666 36.4333C31.0666 35.9666 31.4332 35.6 31.8999 35.6C32.3666 35.6 32.7332 35.9666 32.7332 36.4333C32.7332 38.7833 33.9332 41 35.9666 42.3666C37.1499 43.1666 38.5332 43.55 40.1999 43.55C40.5999 43.55 41.2666 43.5 41.9332 43.3833C42.3832 43.3 42.8166 43.6 42.8999 44.0666C42.9832 44.5166 42.6832 44.95 42.2166 45.0333C41.2666 45.2166 40.4332 45.2333 40.1999 45.2333ZM36.8499 48.6666C36.7832 48.6666 36.6999 48.65 36.6332 48.6333C33.9832 47.9 32.2499 46.9166 30.4332 45.1333C28.0999 42.8166 26.8166 39.7333 26.8166 36.4333C26.8166 33.7333 29.1166 31.5333 31.9499 31.5333C34.7832 31.5333 37.0832 33.7333 37.0832 36.4333C37.0832 38.2166 38.6332 39.6666 40.5499 39.6666C42.4666 39.6666 44.0166 38.2166 44.0166 36.4333C44.0166 30.15 38.5999 25.05 31.9332 25.05C27.1999 25.05 22.8666 27.6833 20.9166 31.7666C20.2666 33.1166 19.9332 34.7 19.9332 36.4333C19.9332 37.7333 20.0499 39.7833 21.0499 42.45C21.2166 42.8833 20.9999 43.3666 20.5666 43.5166C20.1332 43.6833 19.6499 43.45 19.4999 43.0333C18.6832 40.85 18.2832 38.6833 18.2832 36.4333C18.2832 34.4333 18.6666 32.6166 19.4166 31.0333C21.6332 26.3833 26.5499 23.3666 31.9332 23.3666C39.5166 23.3666 45.6832 29.2166 45.6832 36.4166C45.6832 39.1166 43.3832 41.3166 40.5499 41.3166C37.7166 41.3166 35.4166 39.1166 35.4166 36.4166C35.4166 34.6333 33.8666 33.1833 31.9499 33.1833C30.0332 33.1833 28.4832 34.6333 28.4832 36.4166C28.4832 39.2666 29.5832 41.9333 31.5999 43.9333C33.1832 45.5 34.6999 46.3666 37.0499 47.0166C37.4999 47.1333 37.7499 47.6 37.6332 48.0333C37.5499 48.4166 37.1999 48.6666 36.8499 48.6666Z" fill="#78809B"/>
</svg>
