<svg width="40" height="40" viewBox="0 0 40 40" fill="none" xmlns="http://www.w3.org/2000/svg">
<rect x="39" y="6" width="28" height="38" rx="4" transform="rotate(90 39 6)" stroke="#0D1F3C" stroke-width="2" stroke-linecap="round" stroke-linejoin="round"/>
<path fill-rule="evenodd" clip-rule="evenodd" d="M36 11C36 9.89543 35.1046 9 34 9H6C4.89543 9 4 9.89543 4 11V29C4 30.1046 4.89543 31 6 31H34C35.1046 31 36 30.1046 36 29V11ZM15.7905 19.2044C15.8973 18.8112 16 18.4334 16 18C16 16.3431 14.6569 15 13 15C11.3431 15 10 16.3431 10 18C10 18.1574 10.0364 18.382 10.0814 18.66C10.2723 19.8391 10.6185 21.9769 9.00001 24C9.5 25.4254 17.5322 25.3515 17 24.5C15.154 21.5464 15.4889 20.3141 15.7905 19.2044Z" fill="#EBECF0"/>
<path d="M8.22737 24.3634L8 25H18L17.7726 24.3634C17.0523 22.3464 15.1418 21 13 21C10.8582 21 8.94772 22.3464 8.22737 24.3634Z" stroke="#78809B" stroke-width="2" stroke-linecap="round" stroke-linejoin="round"/>
<circle cx="13" cy="18" r="3" stroke="#78809B" stroke-width="2" stroke-linecap="round" stroke-linejoin="round"/>
<path d="M23 17H32" stroke="#78809B" stroke-width="2" stroke-linecap="round" stroke-linejoin="round"/>
<path d="M23 21H26" stroke="#78809B" stroke-width="2" stroke-linecap="round" stroke-linejoin="round"/>
</svg>
