<svg width="40" height="40" viewBox="0 0 40 40" fill="none" xmlns="http://www.w3.org/2000/svg">
<rect x="35" y="39" width="30" height="38" rx="4" transform="rotate(-180 35 39)" stroke="#0D1F3C" stroke-width="2" stroke-linecap="round" stroke-linejoin="round"/>
<path d="M25 29.5L15 29.5" stroke="#9CB7FF" stroke-width="2" stroke-linecap="round" stroke-linejoin="round"/>
<path fill-rule="evenodd" clip-rule="evenodd" d="M30 36C31.1046 36 32 35.1046 32 34L32 6C32 4.89543 31.1046 4 30 4H10C8.89543 4 8 4.89543 8 6L8 34C8 35.1046 8.89543 36 10 36L30 36ZM20 22C23.866 22 27 18.866 27 15C27 11.134 23.866 8 20 8C16.134 8 13 11.134 13 15C13 18.866 16.134 22 20 22Z" fill="#EBECF0"/>
<circle cx="20" cy="15" r="6.70833" stroke="#78809B" stroke-width="2" stroke-linecap="round" stroke-linejoin="round"/>
<rect x="13" y="8" width="14" height="14" stroke="#7F7FFF"/>
<path d="M20 21C24 17.678 24 12.322 20 9C16 12.3204 16 17.678 20 21Z" stroke="#78809B" stroke-width="2" stroke-linecap="round" stroke-linejoin="round"/>
<path d="M26 15H14" stroke="#78809B" stroke-width="2" stroke-linecap="round" stroke-linejoin="round"/>
<path d="M25 31.5L15 31.5" stroke="#78809B" stroke-width="2" stroke-linecap="round" stroke-linejoin="round"/>
</svg>
