<svg width="40" height="40" viewBox="0 0 40 40" fill="none" xmlns="http://www.w3.org/2000/svg">
<circle cx="20" cy="20" r="17" stroke="#0D1F3C" stroke-width="2" stroke-linecap="round" stroke-linejoin="round"/>
<path fill-rule="evenodd" clip-rule="evenodd" d="M20 34C27.732 34 34 27.732 34 20C34 12.268 27.732 6 20 6C12.268 6 6 12.268 6 20C6 27.732 12.268 34 20 34ZM20 21C23.3137 21 26 18.3137 26 15C26 11.6863 23.3137 9 20 9C16.6863 9 14 11.6863 14 15C14 18.3137 16.6863 21 20 21Z" fill="#EBECF0"/>
<path d="M13 28L13.0652 27.8695C14.251 25.498 16.6748 24 19.3262 24H20.6738C23.3252 24 25.749 25.498 26.9348 27.8695L27 28" stroke="#78809B" stroke-width="2" stroke-linecap="round" stroke-linejoin="round"/>
<circle cx="20" cy="15" r="5" stroke="#78809B" stroke-width="2" stroke-linecap="round" stroke-linejoin="round"/>
</svg>
