<svg width="40" height="40" viewBox="0 0 40 40" fill="none" xmlns="http://www.w3.org/2000/svg">
<circle cx="20" cy="20" r="20" fill="#EAEFFF"/>
<path d="M12 28H10C10 24.6863 12.6863 22 16 22C19.3137 22 22 24.6863 22 28H20C20 25.7909 18.2091 24 16 24C13.7909 24 12 25.7909 12 28ZM27 25H25V22H22V20H25V17H27V20H30V22H27V25ZM16 21C13.7909 21 12 19.2091 12 17C12 14.7909 13.7909 13 16 13C18.2091 13 20 14.7909 20 17C19.9972 19.208 18.208 20.9972 16 21ZM16 15C14.9074 15.0011 14.0179 15.8788 14.0022 16.9713C13.9866 18.0638 14.8506 18.9667 15.9427 18.9991C17.0348 19.0315 17.9508 18.1815 18 17.09V17.49V17C18 15.8954 17.1046 15 16 15Z" fill="#2862FF"/>
</svg>
