<svg width="40" height="40" viewBox="0 0 40 40" fill="none" xmlns="http://www.w3.org/2000/svg">
<path fill-rule="evenodd" clip-rule="evenodd" d="M3.33398 20C3.34409 29.2006 10.8001 36.6566 20.0007 36.6667C29.1616 36.6648 36.6038 29.2697 36.6636 20.1089C36.7235 10.9482 29.3786 3.45635 20.2184 3.33481C11.0583 3.21327 3.5172 10.5076 3.33398 19.6667V20ZM20.684 10.6833L18.334 8.33331L10.0007 16.6666L11.6083 18.2743L20.9414 18.3306V18.3333H28.277L26.8176 15H16.384L16.3867 14.9972H15.562L18.012 13.3543L18.0141 13.3636L20.684 10.6833ZM19.3173 28.2504L21.6673 30.6004L30.0007 22.267L28.3931 20.6594L19.0599 20.6056V20.6004H11.7022L13.1316 23.9337H21.8963L24.4974 23.6899L22.5443 25.0157L22.5421 25.0131L19.3173 28.2504Z" fill="#2862FF"/>
</svg>
