<svg width="40" height="40" viewBox="0 0 40 40" fill="none" xmlns="http://www.w3.org/2000/svg">
<circle cx="20" cy="20" r="20" fill="#EAEFFF"/>
<path d="M10 28H12C12 25.7909 13.7909 24 16 24C18.2091 24 20 25.7909 20 28H22C22 24.6863 19.3137 22 16 22C12.6863 22 10 24.6863 10 28Z" fill="#2862FF"/>
<path d="M12 17C12 14.7909 13.7909 13 16 13C18.2091 13 20 14.7909 20 17C19.9972 19.208 18.208 20.9972 16 21C13.7909 21 12 19.2091 12 17ZM14.0022 16.9713C13.9866 18.0638 14.8506 18.9667 15.9427 18.9991C17.0348 19.0315 17.9508 18.1815 18 17.09V17C18 15.8954 17.1046 15 16 15C14.9074 15.0011 14.0179 15.8788 14.0022 16.9713Z" fill="#2862FF"/>
<path d="M26.339 23.9994C26.131 23.8144 25.896 23.6214 25.647 23.4174L25.6 23.3794L25.5944 23.3749C24.4384 22.4317 23 21.2581 23 19.7994C23.0002 19.3154 23.1953 18.8518 23.5413 18.5133C23.8873 18.1748 24.3551 17.9899 24.839 18.0004C25.4112 17.9989 25.9569 18.2415 26.339 18.6674C26.7212 18.2416 27.2668 17.999 27.839 18.0004C28.3224 17.991 28.7893 18.1765 29.1345 18.5151C29.4797 18.8537 29.6741 19.3169 29.674 19.8004C29.674 21.2652 28.2245 22.4474 27.059 23.398L27.056 23.4004L26.999 23.4474L26.9808 23.4623C26.7505 23.6508 26.5329 23.829 26.338 24.0014L26.339 23.9994Z" fill="#2862FF"/>
</svg>
