<svg width="40" height="40" viewBox="0 0 40 40" fill="none" xmlns="http://www.w3.org/2000/svg">
<circle cx="20" cy="20" r="20" fill="#EAEFFF"/>
<path d="M14 15H16V17H14V15Z" fill="#2862FF"/>
<path d="M11 20V12H19V20H11ZM13 14V18H17V14H13Z" fill="#2862FF"/>
<path d="M21 22H24V24H21V22Z" fill="#2862FF"/>
<path d="M24 24H26V22H29V25H26V26H27V27H29V30H27V28H25V30H21V26H23V28H24V24Z" fill="#2862FF"/>
<path d="M26 15H24V17H26V15Z" fill="#2862FF"/>
<path d="M21 12V20H29V12H21ZM27 14V18H23V14H27Z" fill="#2862FF"/>
<path d="M14 25H16V27H14V25Z" fill="#2862FF"/>
<path d="M11 30V22H19V30H11ZM13 24V28H17V24H13Z" fill="#2862FF"/>
</svg>
