<svg width="40" height="40" viewBox="0 0 40 40" fill="none" xmlns="http://www.w3.org/2000/svg">
<path d="M39.402 24.8381C36.7309 35.5525 25.8789 42.0731 15.1633 39.4012C4.4521 36.7301 -2.06846 25.8775 0.603853 15.1639C3.27382 4.44838 14.1258 -2.07268 24.8381 0.598468C35.553 3.26961 42.0732 14.1234 39.4017 24.8383L39.4019 24.8381H39.402Z" fill="#F7931A"/>
<path fill-rule="evenodd" clip-rule="evenodd" d="M28.8217 17.1505C29.2197 14.4889 27.1934 13.0582 24.4225 12.1038L25.3214 8.49851L23.1268 7.95165L22.2517 11.462C21.6748 11.3181 21.0822 11.1826 20.4933 11.0481L21.3747 7.51457L19.1814 6.96771L18.2821 10.5719C17.8046 10.4632 17.3357 10.3557 16.8807 10.2425L16.8832 10.2312L13.8567 9.4754L13.2729 11.8194C13.2729 11.8194 14.9012 12.1927 14.8669 12.2157C15.7556 12.4375 15.9163 13.0258 15.8896 13.4921L14.8657 17.5994C14.9269 17.6149 15.0063 17.6374 15.0939 17.6726L15.0302 17.6567L15.0301 17.6567C14.976 17.6432 14.9197 17.6291 14.8619 17.6152L13.4267 23.369C13.3181 23.639 13.0424 24.0442 12.4211 23.8903C12.4431 23.9222 10.8259 23.4923 10.8259 23.4923L9.73633 26.0045L12.5923 26.7164C12.9049 26.7948 13.2139 26.8754 13.5197 26.9551L13.52 26.9552L13.5203 26.9552C13.734 27.0109 13.9462 27.0663 14.1571 27.1202L13.2489 30.7668L15.441 31.3137L16.3404 27.7057C16.9392 27.8683 17.5204 28.0183 18.0894 28.1596L17.193 31.7506L19.3878 32.2974L20.2959 28.6576C24.0383 29.3659 26.8522 29.0803 28.0367 25.6953C28.9911 22.97 27.9891 21.3981 26.0203 20.373C27.4543 20.0423 28.5344 19.0991 28.8224 17.1508L28.8218 17.1503L28.8217 17.1505ZM23.8073 24.1819C23.1851 26.6822 19.2713 25.6485 17.4806 25.1756L17.4806 25.1756C17.3195 25.133 17.1756 25.095 17.0528 25.0645L18.258 20.2333C18.4076 20.2707 18.5905 20.3117 18.7977 20.3582C20.6499 20.7739 24.4449 21.6255 23.8074 24.1819H23.8073ZM19.1692 18.1159C20.6621 18.5144 23.9189 19.3835 24.4861 17.111H24.4863C25.0654 14.7868 21.9004 14.086 20.3546 13.7438C20.1807 13.7053 20.0273 13.6713 19.902 13.6401L18.8094 18.0217C18.9125 18.0474 19.0336 18.0797 19.1692 18.1159Z" fill="white"/>
</svg>
