<svg width="40" height="40" viewBox="0 0 40 40" fill="none" xmlns="http://www.w3.org/2000/svg">
<path d="M19.9936 40C31.0467 40 40 31.0496 40 20C40 8.95042 31.0467 0 19.9936 0C8.94042 0 0 8.95042 0 20C0 31.0496 8.9533 40 19.9936 40Z" fill="#008CE3"/>
<path d="M23.0466 11.2427H15.1883L14.5442 14.8744L21.6295 14.8872C25.1206 14.8872 26.1512 16.1493 26.1255 18.2485C26.1126 19.3302 25.6488 21.1461 25.4427 21.7385C24.9016 23.3096 23.8066 25.1126 19.6585 25.0997H12.7664L12.1094 28.7443H19.9419C22.6987 28.7443 23.8839 28.4223 25.1206 27.8428C27.8775 26.5679 29.5264 23.8505 30.1834 20.2961C31.1754 15.0031 29.9516 11.2427 23.0466 11.2427Z" fill="white"/>
<path d="M11.8134 18.1714C9.75221 18.1714 9.45591 19.5107 9.26268 20.3221C9.00503 21.3781 8.92773 21.8159 8.92773 21.8159H16.9664C19.0276 21.8159 19.3239 20.4766 19.5171 19.6653C19.7748 18.6092 19.852 18.1714 19.852 18.1714H11.8134Z" fill="white"/>
</svg>
