<svg width="40" height="40" viewBox="0 0 40 40" fill="none" xmlns="http://www.w3.org/2000/svg">
<path d="M20 40C31.0457 40 40 31.0457 40 20C40 8.9543 31.0457 0 20 0C8.9543 0 0 8.9543 0 20C0 31.0457 8.9543 40 20 40Z" fill="#0052B4"/>
<path d="M20.0008 7.82611L20.6483 9.819H22.7437L21.0484 11.0506L21.696 13.0435L20.0008 11.8118L18.3055 13.0435L18.953 11.0506L17.2578 9.819H19.3532L20.0008 7.82611Z" fill="#FFDA44"/>
<path d="M11.3925 11.3918L13.2597 12.343L14.7414 10.8615L14.4135 12.931L16.2806 13.8823L14.211 14.2101L13.8832 16.2798L12.9318 14.4127L10.8623 14.7406L12.3439 13.259L11.3925 11.3918Z" fill="#FFDA44"/>
<path d="M7.82617 20L9.81906 19.3524V17.257L11.0506 18.9523L13.0436 18.3048L11.8118 20L13.0436 21.6952L11.0506 21.0477L9.81906 22.743V20.6476L7.82617 20Z" fill="#FFDA44"/>
<path d="M11.3925 28.6083L12.3439 26.7411L10.8623 25.2595L12.9319 25.5874L13.8831 23.7203L14.211 25.7899L16.2805 26.1178L14.4136 27.0691L14.7414 29.1386L13.2597 27.657L11.3925 28.6083Z" fill="#FFDA44"/>
<path d="M20.0008 32.1739L19.3531 30.181H17.2578L18.9531 28.9494L18.3055 26.9567L20.0008 28.1882L21.696 26.9567L21.0484 28.9494L22.7437 30.181H20.6483L20.0008 32.1739Z" fill="#FFDA44"/>
<path d="M28.6076 28.6083L26.7405 27.6571L25.2588 29.1387L25.5867 27.069L23.7197 26.1178L25.7893 25.7899L26.1171 23.7203L27.0683 25.5874L29.1379 25.2595L27.6562 26.7413L28.6076 28.6083Z" fill="#FFDA44"/>
<path d="M32.1733 20L30.1804 20.6476V22.743L28.9488 21.0476L26.9561 21.6952L28.1877 20L26.9561 18.3048L28.9489 18.9523L30.1804 17.257V19.3525L32.1733 20Z" fill="#FFDA44"/>
<path d="M28.6076 11.3917L27.6563 13.2589L29.1379 14.7406L27.0682 14.4126L26.1171 16.2797L25.7893 14.2101L23.7197 13.8822L25.5867 12.931L25.2588 10.8615L26.7406 12.3431L28.6076 11.3917Z" fill="#FFDA44"/>
</svg>
