<svg width="40" height="40" viewBox="0 0 40 40" fill="none" xmlns="http://www.w3.org/2000/svg">
<circle cx="20" cy="20" r="20" fill="#13B5EC"/>
<path fill-rule="evenodd" clip-rule="evenodd" d="M21.6669 16.0016L26.1669 13.3634V18.6398L21.6669 16.0016ZM26.1669 27.3082L20.1669 30.8258L14.1669 27.3082V21.1524L20.1669 24.67L26.1669 21.1524V27.3082ZM14.1669 13.3634L18.6669 16.0016L14.1669 18.6398V13.3634ZM20.9169 17.258L25.4169 19.8962L20.9169 22.5344V17.258ZM19.4169 22.5344L14.9169 19.8962L19.4169 17.258V22.5344ZM25.4169 12.1072L20.1669 15.1223L14.9169 12.1072L20.1669 8.96647L25.4169 12.1072ZM12.667 11.6046V28.0619L20.167 32.3333L27.667 28.0619V11.6046L20.167 7.33325L12.667 11.6046Z" fill="white"/>
</svg>
