<svg width="40" height="40" viewBox="0 0 40 40" fill="none" xmlns="http://www.w3.org/2000/svg">
<circle cx="20" cy="20" r="20" fill="#6747ED"/>
<path fill-rule="evenodd" clip-rule="evenodd" d="M18.9822 22.6493C16.0304 22.6493 13.6607 20.2774 13.6607 17.3229C13.6607 14.3684 16.0304 11.9965 18.9822 11.9965C21.9339 11.9965 24.3036 14.3684 24.3036 17.3229C24.3036 20.2774 21.9339 22.6493 18.9822 22.6493ZM18.9822 9.33325C23.389 9.33325 26.9644 12.9119 26.9644 17.3228C26.9644 21.7338 23.389 25.3124 18.9822 25.3124C14.5754 25.3124 11 21.7338 11 17.3228C11 12.9119 14.5754 9.33325 18.9822 9.33325ZM26.5902 25.7286C27.1307 26.2696 27.1307 27.1019 26.5902 27.6012L21.2688 32.9276C20.7283 33.4686 19.8968 33.4686 19.3979 32.9276C18.8575 32.3866 18.8575 31.5544 19.3979 31.055L24.7194 25.7286C25.2183 25.1877 26.0913 25.1877 26.5902 25.7286ZM29.6667 10.6649C29.6667 11.414 29.0846 11.9965 28.3363 11.9965C27.588 11.9965 27.0059 11.414 27.0059 10.6649C27.0059 9.91591 27.588 9.33333 28.3363 9.33333C29.0431 9.33333 29.6667 9.91591 29.6667 10.6649Z" fill="white"/>
</svg>
