<svg width="40" height="40" viewBox="0 0 40 40" fill="none" xmlns="http://www.w3.org/2000/svg">
<circle cx="20" cy="20" r="20" fill="#292929"/>
<path fill-rule="evenodd" clip-rule="evenodd" d="M18.7666 11.8679L18.7672 11.8759L18.7682 11.8931C19.0171 11.5081 19.3531 11.3081 19.8035 11.3081C20.259 11.3069 20.5925 11.5143 20.8339 11.9293L20.8401 11.8693C20.8393 11.4815 20.8396 11.0936 20.8399 10.7056V10.7056V10.7055V10.7055V10.7055V10.7054V10.7054V10.7053V10.7053C20.8404 9.92916 20.841 9.15282 20.8327 8.37703C20.8342 8.06742 20.6981 7.77327 20.4615 7.5748C20.2249 7.37632 19.9125 7.29421 19.6094 7.35085C19.1241 7.43709 18.7657 7.87956 18.7645 8.40453V11.8193C18.7645 11.8358 18.7655 11.8517 18.7666 11.8678V11.8678V11.8678V11.8678V11.8679ZM18.7649 22.662C18.7647 22.8262 18.7644 22.9905 18.7644 23.1549V24.801L18.7644 24.8201C18.7643 24.8839 18.7642 24.9485 18.7744 25.011C18.849 25.5577 19.3312 25.9537 19.8795 25.9184C20.4279 25.8683 20.8457 25.4029 20.8389 24.8498C20.8414 24.2448 20.8401 23.6386 20.8377 23.0324C20.8353 22.9868 20.8187 22.9431 20.7904 22.9074C20.6918 22.7839 20.5899 22.6645 20.488 22.5452L20.488 22.5451L20.4195 22.4649L20.1932 22.1967C19.9143 21.8662 19.6357 21.5361 19.3556 21.2075C19.2361 21.0675 19.093 21.025 18.9561 21.085C18.808 21.15 18.762 21.2725 18.7632 21.4325C18.7659 21.8422 18.7654 22.2519 18.7649 22.662ZM18.7644 27.6583C19.0183 28.0458 19.3568 28.2433 19.811 28.2421C20.264 28.2408 20.5938 28.0333 20.8401 27.6483V30.5407C20.8399 30.6054 20.8401 30.6703 20.8403 30.7353V30.7353V30.7353V30.7354V30.7354V30.7354V30.7355C20.8411 30.9549 20.8419 31.1746 20.8227 31.3906C20.7726 31.9458 20.2943 32.3616 19.7401 32.3318C19.1944 32.2951 18.7696 31.8412 18.7669 31.2919C18.7624 30.4802 18.7632 29.6685 18.7639 28.8563C18.7642 28.5517 18.7644 28.2469 18.7644 27.9421V27.6583ZM20.8401 18.7026V16.6265C20.8401 15.9441 20.8401 15.2616 20.8377 14.5792C20.8377 14.4904 20.8314 14.4004 20.8128 14.3142C20.6983 13.7967 20.2105 13.4292 19.7189 13.4842C19.1769 13.5324 18.7623 13.9901 18.7657 14.5367C18.762 15.4291 18.7632 16.3228 18.7657 17.2152C18.7687 17.2611 18.7861 17.3049 18.8155 17.3402C18.9477 17.5011 19.0817 17.6582 19.216 17.8156L19.2796 17.8902L20.1806 18.9501C20.2871 19.0853 20.4699 19.1333 20.6286 19.0676C20.7779 19.0076 20.8401 18.9001 20.8401 18.7026ZM22.9942 12.4055V9.63071C22.9967 9.12824 23.2817 8.71826 23.7247 8.57827C24.3967 8.36453 25.0687 8.8745 25.0724 9.60946C25.0749 10.0709 25.0741 10.5323 25.0733 10.9933V10.9934V10.9935V10.9936V10.9938V10.9943C25.0728 11.2248 25.0724 11.4553 25.0724 11.6856V15.1791C25.0724 15.6953 24.7638 16.1128 24.2922 16.2415C23.6787 16.4078 23.0527 15.9541 23.0017 15.3054C22.9972 15.2417 22.9951 15.1779 22.9955 15.1141V12.4055H22.9942ZM16.7174 28.9895V25.7835H16.7161C16.7161 25.4245 16.7165 25.0655 16.717 24.7064V24.7062V24.7061V24.706V24.7058C16.7178 23.9871 16.7186 23.2682 16.7161 22.5499C16.7174 22.2278 16.5704 21.9232 16.3178 21.7247C16.0652 21.5262 15.7354 21.4562 15.4244 21.535C14.9615 21.655 14.6429 22.0762 14.6429 22.5749V28.5158C14.6429 28.5694 14.6426 28.623 14.6422 28.6767V28.6767C14.6415 28.8018 14.6407 28.9269 14.6442 29.052C14.6616 29.6757 15.2577 30.1632 15.855 30.0482C16.3619 29.9552 16.727 29.507 16.7174 28.9895ZM16.7174 13.9767V18.3502C16.727 18.8501 16.3863 19.2884 15.901 19.4001C15.5956 19.4654 15.2772 19.3894 15.0336 19.1932C14.79 18.997 14.647 18.7013 14.6442 18.3877C14.6402 17.9811 14.6408 17.5751 14.6414 17.1689V17.1689V17.1687V17.1686V17.1684C14.6418 16.9429 14.6421 16.7173 14.6417 16.4915V9.60946C14.6417 9.09449 14.9752 8.66451 15.4543 8.55577C15.7628 8.48775 16.0854 8.56439 16.3309 8.76405C16.5764 8.9637 16.7182 9.26468 16.7161 9.58196C16.7186 10.331 16.7178 11.0796 16.717 11.8283C16.7165 12.2027 16.7161 12.5771 16.7161 12.9518L16.7174 13.9767ZM22.9942 19.4588V24.2086L22.9955 24.2061V28.8958C22.9949 28.9625 22.997 29.0292 23.0017 29.0958C23.054 29.747 23.6911 30.1994 24.3059 30.0219C24.775 29.887 25.0724 29.472 25.0724 28.9495V19.3901C25.0475 18.6239 24.2909 18.1227 23.6165 18.4364C23.1958 18.6339 22.9942 18.9851 22.9942 19.4588ZM29.3333 19.3764V26.8009C29.3459 27.3113 28.9953 27.7585 28.4983 27.8658C27.8861 27.9996 27.2763 27.5084 27.2589 26.8671V11.9681C27.2589 11.4868 27.4991 11.1031 27.9047 10.9331C28.5892 10.6456 29.3321 11.1631 29.3321 11.9306V19.3751L29.3333 19.3764ZM12.7414 26.8009V19.3651V19.3639V14.3492C12.7414 14.0968 12.7419 13.8445 12.7424 13.5922C12.7434 13.0247 12.7445 12.4573 12.7402 11.8906C12.7384 11.5684 12.5884 11.2651 12.3339 11.0691C12.0793 10.873 11.7488 10.8062 11.4385 10.8881C10.9719 11.0181 10.667 11.4331 10.667 11.9443V26.8646C10.6844 27.5209 11.3079 28.0133 11.9301 27.8633C12.4179 27.7471 12.7414 27.3259 12.7414 26.8009Z" fill="white"/>
</svg>
