<svg width="40" height="40" xmlns="http://www.w3.org/2000/svg">

 <g>
  <title>Layer 1</title>
  <g stroke="null">
   <circle stroke="null" fill="#fff" r="17.65704" cy="20" cx="19.99996"/>
   <path stroke="null" fill="#345d9d" d="m19.99996,-0.04269a19.80005,20.04269 0 1 0 19.80005,20.04269l0,0a19.74252,19.98446 0 0 0 -19.68499,-20.04269l-0.11506,0zm0.33559,20.72211l-2.06151,7.03678l11.02666,0a0.55613,0.56294 0 0 1 0.5753,0.54353l0,0.18441l-0.95884,3.34854a0.71434,0.72309 0 0 1 -0.71913,0.53382l-16.87558,0l2.82858,-9.75443l-3.16417,0.97059l0.71913,-2.23236l3.16417,-0.97059l3.97919,-13.68533a0.72392,0.7328 0 0 1 0.71913,-0.53382l4.26684,0a0.55613,0.56294 0 0 1 0.5753,0.54353l0,0.18441l-3.35594,11.55003l3.16417,-0.97059l-0.67119,2.32942l-3.21211,0.92206z"/>
  </g>
 </g>
</svg>