<svg width="40" height="40" viewBox="0 0 40 40" fill="none" xmlns="http://www.w3.org/2000/svg">
<path fill-rule="evenodd" clip-rule="evenodd" d="M20 40C9 40 0 31.0002 0 19.9004C0.1 8.90064 9 -0.0991726 20.1 0.00082534C31.1 0.100823 40 9.00064 40 20.2004C39.9 31.1002 31 40 20 40Z" fill="#F65556"/>
<path fill-rule="evenodd" clip-rule="evenodd" d="M32.4119 14.0108L32.4118 14.0107C31.4856 13.1113 30.5068 12.161 29.6431 11.3943L29.5556 11.3331C29.41 11.2162 29.2458 11.1245 29.0699 11.0618L28.4033 10.9375C23.8033 10.0792 8.89296 7.29705 8.58625 7.33436C8.49553 7.34706 8.40882 7.37995 8.3325 7.43061L8.24937 7.49623C8.14702 7.60018 8.06928 7.72576 8.02187 7.86373L8 7.9206V8.23123V8.27935C9.01229 11.0981 11.6419 17.3931 14.07 23.2055L14.07 23.2055C16.1227 28.1195 18.0314 32.6886 18.6968 34.5205L18.6971 34.5213C18.7846 34.7927 18.9509 35.308 19.2612 35.3343H19.3312C19.4975 35.3343 20.2062 34.398 20.2062 34.398C20.2062 34.398 32.8762 19.0331 34.158 17.3968C34.324 17.1953 34.4705 16.9785 34.5955 16.7493C34.6605 16.3846 34.5293 16.0126 34.2499 15.7693C33.7041 15.2654 33.0713 14.651 32.4119 14.0108ZM23.4565 17.5581L28.864 13.0737L32.0359 15.9962L23.4565 17.5581ZM12.0454 9.63379L21.3554 17.2638L27.1085 12.4119L12.0454 9.63379ZM22.197 19.2651L31.7257 17.7295L20.832 30.8545L22.197 19.2651ZM20.5764 18.708L10.7808 10.3955L19.1589 30.8617L20.5764 18.708Z" fill="white"/>
</svg>
