<svg width="40" height="40" viewBox="0 0 40 40" fill="none" xmlns="http://www.w3.org/2000/svg">
<path d="M39.3971 24.8381C36.726 35.5525 25.8741 42.0731 15.1584 39.4012C4.44722 36.7301 -2.07335 25.8775 0.598971 15.1639C3.26894 4.44838 14.1209 -2.07268 24.8332 0.598468C35.5481 3.26961 42.0683 14.1234 39.3968 24.8383L39.397 24.8381H39.3971Z" fill="#23292F"/>
<path d="M29.8335 8.33331H33.8695L25.4703 16.6496C22.4286 19.6597 17.4971 19.6597 14.4532 16.6496L6.05078 8.33331H10.09L16.4712 14.6507C18.4058 16.5574 21.5129 16.5574 23.4474 14.6507L29.8335 8.33331Z" fill="white"/>
<path d="M10.0387 31.4583H6L14.4537 23.0908C17.4954 20.0807 22.4269 20.0807 25.4708 23.0908L33.9245 31.4583H29.8886L23.4528 25.0897C21.5183 23.183 18.4112 23.183 16.4766 25.0897L10.0387 31.4583Z" fill="white"/>
</svg>
