<svg width="40" height="40" viewBox="0 0 40 40" fill="none" xmlns="http://www.w3.org/2000/svg">
<path fill-rule="evenodd" clip-rule="evenodd" d="M20 40C8.9543 40 0 31.0457 0 20C0 8.9543 8.9543 0 20 0C31.0457 0 40 8.9543 40 20C40 31.0457 31.0457 40 20 40Z" fill="#DEE0EB"/>
<path d="M15 25V20.625H19.375L17.3644 22.6375C18.0581 23.3469 19.0078 23.7477 20 23.75C21.5872 23.7476 23.0009 22.7464 23.53 21.25H23.5413C23.6128 21.0466 23.667 20.8375 23.7031 20.625H24.9606C24.6457 23.1249 22.5197 24.9999 20 25H19.9938C18.668 25.004 17.3957 24.4773 16.4606 23.5375L15 25ZM16.2963 19.375H15.0388C15.3536 16.876 17.4781 15.0013 19.9969 15H20C21.326 14.9957 22.5986 15.5224 23.5338 16.4625L25 15V19.375H20.625L22.6388 17.3625C21.9443 16.6523 20.9933 16.2513 20 16.25C18.4128 16.2523 16.9991 17.2536 16.47 18.75H16.4588C16.3866 18.9532 16.3324 19.1623 16.2969 19.375H16.2963Z" fill="#3D4C64"/>
</svg>
