<svg width="40" height="40" viewBox="0 0 40 40" fill="none" xmlns="http://www.w3.org/2000/svg">
<path fill-rule="evenodd" clip-rule="evenodd" d="M20 40C8.9543 40 0 31.0457 0 20C0 8.9543 8.9543 0 20 0C31.0457 0 40 8.9543 40 20C40 31.0457 31.0457 40 20 40Z" fill="#DEE0EB"/>
<path d="M16.875 26.25L14.375 23.75L16.875 21.25V23.125H23.125V20.625H24.375V23.75C24.375 24.0952 24.0952 24.375 23.75 24.375H16.875V26.25ZM16.875 19.375H15.625V16.25C15.625 15.9048 15.9048 15.625 16.25 15.625H23.125V13.75L25.625 16.25L23.125 18.75V16.875H16.875V19.375Z" fill="#3D4C64"/>
</svg>
