<svg width="24" height="18" viewBox="0 0 24 18" fill="none" xmlns="http://www.w3.org/2000/svg">
<path fill-rule="evenodd" clip-rule="evenodd" d="M9.8921 0.75C9.32931 0.75 8.69673 0.900271 8.1133 1.142C7.52989 1.38372 6.97658 1.72481 6.57907 2.12245L1.49246 7.20838C0.502199 8.19864 0.502825 9.80151 1.49247 10.7911L6.57911 15.8776C6.97678 16.2754 7.53034 16.6164 8.11383 16.8581C8.69735 17.0998 9.32985 17.25 9.8921 17.25H21.3248C22.7263 17.25 23.8585 16.116 23.8585 14.716V3.28397C23.8585 1.88256 22.7248 0.75 21.3248 0.75H9.8921ZM2.9235 9.36043C2.72399 9.16093 2.72384 8.83957 2.92351 8.6399L8.00988 3.55352C8.20463 3.35892 8.52721 3.1614 8.88785 3.01203C9.2485 2.86267 9.61641 2.77423 9.8921 2.77423H21.3248C21.6078 2.77423 21.8349 3.00118 21.8349 3.28424V14.7163C21.8349 14.9992 21.6079 15.2263 21.3248 15.2263H9.8921C9.61695 15.2263 9.24903 15.1379 8.8882 14.9885C8.5274 14.8391 8.20458 14.6416 8.00989 14.447L2.9235 9.36043ZM11.1951 12.8047C11.1899 12.7994 11.1847 12.7941 11.1797 12.7887L11.0184 12.9815C10.6605 12.6236 10.6605 12.0431 11.0184 11.6853L13.7037 8.99999L11.0184 6.3147C10.6605 5.95689 10.6605 5.37633 11.0184 5.01852C11.3764 4.66052 11.957 4.66044 12.3149 5.0186L15 7.70369L17.6851 5.01854L15.8666 7.19055L15.9149 7.14234L17.6851 5.01854C18.0431 4.66054 18.6237 4.66042 18.9816 5.01858C19.3396 5.37643 19.3395 5.95702 18.9814 6.3148L16.2963 8.99999L18.9814 11.6852C19.3395 12.043 19.3396 12.6237 18.9814 12.9815C18.6236 13.3396 18.0431 13.3394 17.6851 12.9814L15 10.2963L12.3149 12.9814C11.957 13.3395 11.3763 13.3394 11.0184 12.9815L11.1951 12.8047L11.1951 12.8047Z" fill="black"/>
</svg>
