<svg width="40" height="40" viewBox="0 0 40 40" fill="none" xmlns="http://www.w3.org/2000/svg">
<path fill-rule="evenodd" clip-rule="evenodd" d="M4.4334 11.3334C4.4334 7.52263 7.52263 4.4334 11.3334 4.4334H15.0001C15.6076 4.4334 16.1001 3.94091 16.1001 3.3334C16.1001 2.72589 15.6076 2.2334 15.0001 2.2334H11.3334C6.3076 2.2334 2.2334 6.30761 2.2334 11.3334V15.0001C2.2334 15.6076 2.72589 16.1001 3.3334 16.1001C3.94091 16.1001 4.4334 15.6076 4.4334 15.0001V11.3334ZM25.0001 2.2334C24.3926 2.2334 23.9001 2.72589 23.9001 3.3334C23.9001 3.94091 24.3926 4.4334 25.0001 4.4334H28.6667C32.4775 4.4334 35.5667 7.52263 35.5667 11.3334V15.0001C35.5667 15.6076 36.0592 16.1001 36.6667 16.1001C37.2742 16.1001 37.7667 15.6076 37.7667 15.0001V11.3334C37.7667 6.3076 33.6925 2.2334 28.6667 2.2334H25.0001ZM3.3334 23.9001C3.94091 23.9001 4.4334 24.3926 4.4334 25.0001V28.6668C4.4334 32.4775 7.52263 35.5668 11.3334 35.5668H15.0001C15.6076 35.5668 16.1001 36.0592 16.1001 36.6668C16.1001 37.2743 15.6076 37.7668 15.0001 37.7668H11.3334C6.30761 37.7668 2.2334 33.6925 2.2334 28.6668V25.0001C2.2334 24.3926 2.72589 23.9001 3.3334 23.9001ZM37.7667 25.0001C37.7667 24.3926 37.2742 23.9001 36.6667 23.9001C36.0592 23.9001 35.5667 24.3926 35.5667 25.0001V28.6668C35.5667 32.4775 32.4775 35.5668 28.6667 35.5668H25.0001C24.3926 35.5668 23.9001 36.0592 23.9001 36.6668C23.9001 37.2743 24.3926 37.7668 25.0001 37.7668H28.6667C33.6925 37.7668 37.7667 33.6925 37.7667 28.6668V25.0001ZM14.4334 13.3334V15.8334C14.4334 16.4409 13.9409 16.9334 13.3334 16.9334C12.7259 16.9334 12.2334 16.4409 12.2334 15.8334V13.3334H14.4334ZM27.7667 15.8334V13.3334H25.5667V15.8334C25.5667 16.4409 26.0592 16.9334 26.6667 16.9334C27.2742 16.9334 27.7667 16.4409 27.7667 15.8334ZM20.0001 12.2334C20.6076 12.2334 21.1001 12.7259 21.1001 13.3334V20.0001C21.1001 21.5281 19.8614 22.7667 18.3334 22.7667V20.5667C18.6464 20.5667 18.9001 20.313 18.9001 20.0001V13.3334C18.9001 12.7259 19.3926 12.2334 20.0001 12.2334ZM14.9436 24.2213C14.5138 23.7925 13.8176 23.793 13.3885 24.2227C12.9591 24.6525 12.9595 25.349 13.3894 25.7783L14.1667 25.0001C13.3894 25.7783 13.3896 25.7786 13.3899 25.7789L13.3905 25.7795L13.3918 25.7808L13.3953 25.7842L13.4049 25.7937L13.4353 25.8231C13.4605 25.8471 13.4953 25.8799 13.5395 25.9202C13.6277 26.0007 13.7535 26.1115 13.9136 26.2423C14.2329 26.5034 14.6934 26.8484 15.2687 27.1934C16.4079 27.8767 18.0642 28.6001 20.0001 28.6001C21.9359 28.6001 23.5922 27.8767 24.7315 27.1934C25.3067 26.8484 25.7672 26.5034 26.0865 26.2423C26.2466 26.1115 26.3724 26.0007 26.4607 25.9202C26.5048 25.8799 26.5397 25.8471 26.5648 25.8231L26.5952 25.7937L26.6048 25.7842L26.6083 25.7808L26.6096 25.7795L26.6102 25.7789C26.6105 25.7786 26.6108 25.7783 25.8334 25.0001L26.6108 25.7783C27.0406 25.349 27.041 24.6525 26.6117 24.2227C26.183 23.7935 25.488 23.7925 25.058 24.2199C25.0578 24.22 25.0576 24.2202 25.0575 24.2204C25.0573 24.2206 25.0571 24.2208 25.0568 24.221L25.0565 24.2213L25.0442 24.2332C25.031 24.2458 25.0088 24.2667 24.978 24.2948C24.9164 24.351 24.8206 24.4356 24.694 24.5391C24.44 24.7468 24.0666 25.0268 23.5999 25.3068C22.6551 25.8734 21.3947 26.4001 20.0001 26.4001C18.6054 26.4001 17.3451 25.8734 16.4003 25.3068C15.9335 25.0268 15.5601 24.7468 15.3061 24.5391C15.1795 24.4356 15.0837 24.351 15.0221 24.2948C14.9913 24.2667 14.9691 24.2458 14.956 24.2332L14.9436 24.2213ZM14.9436 24.2213C14.9438 24.2215 14.9439 24.2217 14.9441 24.2218L14.1667 25.0001C14.9441 24.2218 14.9439 24.2216 14.9436 24.2213Z" fill="black"/>
</svg>
