<svg width="24" height="24" viewBox="0 0 24 24" fill="none" xmlns="http://www.w3.org/2000/svg">
<path fill-rule="evenodd" clip-rule="evenodd" d="M2 11C2 9.34315 3.34315 8 5 8H19C20.6569 8 22 9.34315 22 11V19C22 20.6569 20.6569 22 19 22H5C3.34315 22 2 20.6569 2 19V11ZM5 10C4.44772 10 4 10.4477 4 11V19C4 19.5523 4.44772 20 5 20H19C19.5523 20 20 19.5523 20 19V11C20 10.4477 19.5523 10 19 10H5Z" fill="#1B2742"/>
<path fill-rule="evenodd" clip-rule="evenodd" d="M4 8C4 6.34315 5.34315 5 7 5H17C18.6569 5 20 6.34315 20 8C20 8.55228 19.5523 9 19 9C18.4477 9 18 8.55228 18 8C18 7.44772 17.5523 7 17 7H7C6.44772 7 6 7.44772 6 8C6 8.55228 5.55228 9 5 9C4.44772 9 4 8.55228 4 8Z" fill="#1B2742"/>
<path fill-rule="evenodd" clip-rule="evenodd" d="M6 5C6 3.34315 7.34315 2 9 2H15C16.6569 2 18 3.34315 18 5C18 5.55228 17.5523 6 17 6C16.4477 6 16 5.55228 16 5C16 4.44772 15.5523 4 15 4H9C8.44772 4 8 4.44772 8 5C8 5.55228 7.55228 6 7 6C6.44772 6 6 5.55228 6 5Z" fill="#1B2742"/>
</svg>
