<svg width="18" height="18" viewBox="0 0 18 18" fill="none" xmlns="http://www.w3.org/2000/svg">
<path d="M14.3327 1.53337H3.66602C2.09085 1.53337 0.866016 2.75821 0.866016 4.33337V8.33337C0.866016 12.8419 4.49085 16.4667 8.99935 16.4667C13.5078 16.4667 17.1327 12.8419 17.1327 8.33337V4.33337C17.1327 2.75821 15.9078 1.53337 14.3327 1.53337Z" fill="#69CD77" stroke="white" stroke-width="1.6"/>
<path d="M12.1327 7.2C12.3993 7.46667 12.3993 7.86667 12.1327 8.13333L9.46602 10.8C9.33268 10.9333 9.19935 11 8.99935 11C8.79935 11 8.66602 10.9333 8.53268 10.8L5.86602 8.13333C5.59935 7.86667 5.59935 7.46667 5.86602 7.2C6.13268 6.93333 6.53268 6.93333 6.79935 7.2L8.99935 9.4L11.1993 7.2C11.466 6.93333 11.866 6.93333 12.1327 7.2Z" fill="white"/>
</svg>
