<svg width="144" height="144" viewBox="0 0 144 144" fill="none" xmlns="http://www.w3.org/2000/svg">
<path d="M87.7709 61.697C78.9139 43.743 60.4228 31.3919 39.0464 31.3919C38.0241 31.3919 37.0084 31.4202 36 31.476C45.4932 23.3442 57.8266 18.432 71.3074 18.432C92.456 18.432 110.781 30.5212 119.746 48.165L129.6 43.9827L122.517 101.664L76.0973 66.6898L87.7709 61.697Z" fill="#0D1F3C"/>
<path d="M56.2291 82.303C65.086 100.257 83.5772 112.608 104.954 112.608C105.976 112.608 106.992 112.58 108 112.524C98.5068 120.656 86.1734 125.568 72.6925 125.568C51.544 125.568 33.2194 113.479 24.2544 95.835L14.4 100.017L21.4834 42.336L67.9027 77.3102L56.2291 82.303Z" fill="#36416A"/>
</svg>
