<svg width="24" height="24" viewBox="0 0 24 24" fill="none" xmlns="http://www.w3.org/2000/svg">
<path d="M19.8727 11.4174L18.0022 11.2881C17.9953 11.3882 17.8537 13.7613 19.671 15.6337L21.0165 14.3278C19.7962 13.0706 19.8722 11.4276 19.8731 11.4111L19.8727 11.4174Z" fill="#2E3A59"/>
<path d="M6.01359 7.68134L4.46517 6.62402C3.50667 8.02784 3 9.66949 3 11.3715C3 12.1447 3.09581 16.2152 4.98712 20.4274L6.69759 19.6593C4.96289 15.7959 4.875 12.0776 4.875 11.3715C4.875 10.0483 5.2687 8.7723 6.01359 7.68134Z" fill="#2E3A59"/>
<path d="M11.4377 4.875C14.2219 4.875 16.637 6.5287 17.5904 9.08808L19.3475 8.43352C18.7541 6.84075 17.699 5.48386 16.2963 4.50961C14.8745 3.522 13.1944 3 11.4377 3C9.60662 3 7.9103 3.52209 6.53223 4.5098L7.62446 6.0338C8.6822 5.27569 10.0008 4.875 11.4377 4.875Z" fill="#2E3A59"/>
<path d="M8.80797 13.5312L6.95312 13.8052C7.15127 15.1467 7.58889 17.1711 8.54861 19.1968C8.79503 19.7169 9.06798 20.2209 9.35997 20.6947L10.9563 19.7112C10.7002 19.2956 10.4603 18.8524 10.2431 18.394C9.38219 16.577 8.9875 14.7467 8.80797 13.5312Z" fill="#2E3A59"/>
<path d="M17.0283 15.1978C16.2836 13.6357 16.1264 11.7818 16.125 11.3689C16.1237 8.77003 14.0214 6.65625 11.4375 6.65625C8.85277 6.65625 6.75 8.77153 6.75 11.3715H8.625C8.625 9.80541 9.88669 8.53125 11.4375 8.53125C12.9883 8.53125 14.25 9.77761 14.25 11.3438C14.252 12.0024 14.451 14.1485 15.3358 16.0046C15.7733 16.9223 16.2959 17.6293 16.9337 18.1663L18.1413 16.7319C17.7124 16.3708 17.3483 15.869 17.0283 15.1978V15.1978Z" fill="#2E3A59"/>
<path d="M12.375 11.3438C12.3505 10.8462 11.9395 10.4531 11.4375 10.4531C10.9355 10.4531 10.5245 10.8931 10.5 11.3906C10.5082 11.9701 10.6582 16.4946 13.2889 19.7735L14.7513 18.6001C12.4022 15.6722 12.375 11.3864 12.375 11.3438Z" fill="#2E3A59"/>
</svg>
