<svg width="25" height="24" viewBox="0 0 25 24" fill="none" xmlns="http://www.w3.org/2000/svg">
<path fill-rule="evenodd" clip-rule="evenodd" d="M8 8H11.5V11H4.5H3.5V8H8ZM4.5 4.5C4.5 5.0368 4.62085 5.54537 4.83682 6H2.5C1.94772 6 1.5 6.44772 1.5 7V12C1.5 12.5523 1.94772 13 2.5 13H3.5V22C3.5 22.5523 3.94772 23 4.5 23H12.5H20.5C21.0523 23 21.5 22.5523 21.5 22V13H22.5C23.0523 13 23.5 12.5523 23.5 12V7C23.5 6.44772 23.0523 6 22.5 6H20.163C20.379 5.54537 20.4999 5.0368 20.4999 4.5C20.4999 2.567 18.9328 1 16.9999 1C15.039 1 13.5784 2.16845 12.5611 4.01808C12.5405 4.05567 12.5201 4.09339 12.4999 4.13123C12.4798 4.09339 12.4594 4.05567 12.4387 4.01808C11.4214 2.16845 9.96086 1 8 1C6.067 1 4.5 2.567 4.5 4.5ZM13.8457 6H17C17.8284 6 18.5 5.32843 18.5 4.5C18.5 3.67157 17.8284 3 17 3C15.8983 3 15.0151 3.70655 14.3137 4.98192C14.1352 5.30638 13.9794 5.64992 13.8457 6ZM13.5 8V11H20.5H21.5V8H16.9999H13.5ZM11.1543 6H8C7.17157 6 6.5 5.32843 6.5 4.5C6.5 3.67157 7.17157 3 8 3C9.10164 3 9.98483 3.70655 10.6863 4.98192C10.8647 5.30638 11.0206 5.64992 11.1543 6ZM11.5 13H5.5V21H11.5V13ZM13.5 13H19.5V21H13.5V13Z" fill="#5E6788"/>
</svg>
