<svg width="25" height="24" viewBox="0 0 25 24" fill="none" xmlns="http://www.w3.org/2000/svg">
<path fill-rule="evenodd" clip-rule="evenodd" d="M13.1 1.22474L22.1 8.2168C22.4 8.41657 22.5 8.71623 22.5 9.01589V20.0034C22.5 21.7015 21.2 23 19.5 23H16.5V12C16.5 11.4477 16.0523 11 15.5 11H9.5C8.94772 11 8.5 11.4477 8.5 12V23H5.5C3.8 23 2.5 21.7015 2.5 20.0034V9.01589C2.5 8.71623 2.6 8.41657 2.9 8.2168L11.9 1.22474C12.2 0.925085 12.7 0.925085 13.1 1.22474ZM10.5 23H14.5V13H10.5V23Z" fill="#2862FF"/>
</svg>
