<svg width="25" height="24" viewBox="0 0 25 24" fill="none" xmlns="http://www.w3.org/2000/svg">
<path fill-rule="evenodd" clip-rule="evenodd" d="M4.51594 7C4.51594 4.2 6.72471 2 9.53588 2C12.347 2 14.5558 4.2 14.5558 7C14.5558 9.8 12.347 12 9.53588 12C6.72471 12 4.51594 9.8 4.51594 7ZM18.5718 19V21C18.5718 21.6 18.1702 22 17.5678 22C16.9654 22 16.5638 21.6 16.5638 21V19C16.5638 17.3 15.2586 16 13.5518 16H5.51993C3.81315 16 2.50797 17.3 2.50797 19V21C2.50797 21.6 2.10638 22 1.50399 22C0.901594 22 0.5 21.6 0.5 21V19C0.5 16.2 2.70877 14 5.51993 14H13.5518C16.363 14 18.5718 16.2 18.5718 19ZM9.53588 10C7.8291 10 6.52392 8.7 6.52392 7C6.52392 5.3 7.8291 4 9.53588 4C11.2427 4 12.5478 5.3 12.5478 7C12.5478 8.7 11.2427 10 9.53588 10ZM20.7805 14.2C20.2785 14.1 19.6761 14.4 19.5757 14.9C19.4753 15.4 19.7765 16 20.2785 16.1C21.5837 16.4 22.4873 17.6 22.4873 19V21C22.4873 21.6 22.8889 22 23.4913 22C24.0937 22 24.4953 21.6 24.4953 21V19C24.5957 16.7 23.0897 14.7 20.7805 14.2ZM15.5598 2.9C15.7606 2.3 16.2626 2 16.7646 2.2C19.4753 2.8 21.0817 5.6 20.3789 8.4C19.9773 10.2 18.5718 11.5 16.7646 12H16.5638C16.0618 12 15.6602 11.7 15.5598 11.2C15.359 10.7 15.7606 10.1 16.2626 10C17.367 9.7 18.1702 8.9 18.4714 7.8C18.8729 6.1 17.869 4.5 16.2626 4.1C15.7606 4 15.4594 3.4 15.5598 2.9Z" fill="#5E6788"/>
</svg>
