<svg width="45" height="45" viewBox="0 0 45 45" fill="none" xmlns="http://www.w3.org/2000/svg">
<path d="M31.97 0H12.6409C5.0831 0 0 5.30604 0 13.1982V31.4127C0 39.2825 5.0831 44.5886 12.6409 44.5886H31.97C39.5278 44.5886 44.5886 39.2825 44.5886 31.4127V13.1982C44.5886 5.30604 39.5278 0 31.97 0Z" fill="#9CB7FF"/>
<path d="M22.5 26C28.1631 26 33 26.9969 33 30.9813C33 34.9688 28.1938 36 22.5 36C16.8369 36 12 35.0031 12 31.0187C12 27.0312 16.8062 26 22.5 26Z" fill="white"/>
<path d="M22.5 23C18.8917 23 16 20.1083 16 16.5C16 12.8916 18.8917 10 22.5 10C26.107 10 29 12.8916 29 16.5C29 20.1083 26.107 23 22.5 23Z" fill="white"/>
</svg>
