<svg width="50" height="45" viewBox="0 0 50 45" fill="none" xmlns="http://www.w3.org/2000/svg">
<path d="M45.6569 3.65127C43.3172 1.30667 40.1369 0 36.8307 0H12.475C5.56936 0 0 5.57182 0 12.4503V31.927C0 38.8055 5.59401 44.3774 12.475 44.3774H36.8307C43.7117 44.3774 49.3082 38.8055 49.3082 31.927V12.4503C49.3082 9.14667 47.999 5.99094 45.6569 3.65127Z" fill="#9CB7FF"/>
<path d="M40.9503 15.9265L40.7531 16.1238L29.6316 25.0239C28.2534 26.1087 26.5498 26.7004 24.8019 26.7004C23.049 26.7004 21.3749 26.1087 19.9943 25.0239L8.7767 16.2717L8.45373 15.9512C7.88915 15.2116 7.96312 14.1514 8.62878 13.4858C9.26732 12.8201 10.3274 12.7462 11.0942 13.3132L22.1885 22.1887C23.6407 23.3745 25.6894 23.3745 27.1193 22.1887L38.2359 13.3132C38.6082 12.968 39.1012 12.793 39.619 12.8201C40.1096 12.8694 40.5805 13.0938 40.9232 13.4611C41.5395 14.1761 41.5395 15.2116 40.9503 15.9265Z" fill="white"/>
</svg>
