<svg width="54" height="42" viewBox="0 0 54 42" fill="none" xmlns="http://www.w3.org/2000/svg">
<path d="M49.3182 12.3181C49.3182 4.56605 44.2956 0 35.796 0H13.5244C5.02258 0 0 4.56605 0 12.3181V29.2023C0 36.9544 5.02258 41.5385 13.5244 41.5385H35.8048C44.3044 41.5385 49.327 36.9544 49.327 29.2023C49.327 21.4502 49.3182 13.1746 49.3182 12.3181Z" fill="#A9E2B1"/>
<path d="M34.3802 22.1083C34.9989 25.3185 37.466 27.5772 40.2827 27.5184H51.8777C53.0497 27.5184 54.0003 26.4111 54.0003 25.0424V16.4984C53.9978 15.1327 53.0497 14.0225 51.8777 14.0195H40.0563C36.8524 14.0313 34.2645 17.0653 34.2695 20.8042C34.2695 21.2418 34.3073 21.6795 34.3802 22.1083Z" fill="#82D58D"/>
<ellipse cx="39.9809" cy="20.769" rx="2.59616" ry="2.59615" fill="white"/>
<path d="M26.5978 12.424H13.565C12.5893 12.42 11.8006 11.6469 11.8047 10.6979C11.8088 9.75302 12.5955 8.9879 13.565 8.9839H26.606C27.5816 8.97991 28.3786 9.74703 28.3827 10.6959C28.3868 11.6469 27.5981 12.42 26.6224 12.424H26.606H26.5978Z" fill="white"/>
<path d="M26.6063 9.0699L26.606 9.0699L13.5652 9.0699C12.6408 9.0738 11.8946 9.80281 11.8907 10.6983L26.6063 9.0699ZM26.6063 9.0699C27.5369 9.06609 28.2928 9.79722 28.2967 10.6963C28.3006 11.5975 27.5525 12.3341 26.6222 12.338H26.606H26.5978H13.5652M26.6063 9.0699L13.5652 12.338M13.5652 12.338C12.6348 12.3341 11.8868 11.5974 11.8907 10.6983L13.5652 12.338Z" stroke="url(#paint0_linear_1113_19979)" stroke-opacity="0.5" stroke-width="0.171995"/>
<defs>
<linearGradient id="paint0_linear_1113_19979" x1="13.5905" y1="10.1379" x2="27.658" y2="10.5121" gradientUnits="userSpaceOnUse">
<stop stop-color="white"/>
<stop offset="1" stop-color="white" stop-opacity="0"/>
</linearGradient>
</defs>
</svg>
