<svg width="40" height="40" viewBox="0 0 40 40" fill="none" xmlns="http://www.w3.org/2000/svg">
<circle cx="20" cy="20" r="20" fill="#2862FF"/>
<path fill-rule="evenodd" clip-rule="evenodd" d="M6.66699 20C6.67508 27.3605 12.6399 33.3253 20.0003 33.3334C27.3291 33.3319 33.2828 27.4157 33.3307 20.0871C33.3786 12.7585 27.5027 6.76509 20.1746 6.66786C12.8464 6.57063 6.81357 12.4061 6.66699 19.7334V20ZM20.547 12.5467L18.667 10.6667L12.0003 17.3333L13.2864 18.6194L20.7529 18.6645V18.6667H26.6214L25.4539 16H17.107L17.1092 15.9978H16.4494L18.4094 14.6834L18.4111 14.6909L20.547 12.5467ZM19.4537 26.6003L21.3337 28.4803L28.0003 21.8136L26.7143 20.5276L19.2477 20.4845V20.4803H13.3616L14.5051 23.147H21.5168L23.5977 22.9519L22.0353 24.0126L22.0335 24.0105L19.4537 26.6003Z" fill="white"/>
</svg>
