<svg width="34" height="34" viewBox="0 0 34 34" fill="none" xmlns="http://www.w3.org/2000/svg">
    <path fill-rule="evenodd" clip-rule="evenodd" d="M16.9997 33.6667C7.79912 33.6566 0.343112 26.2006 0.333008 17V16.6667C0.516227 7.50759 8.05732 0.213293 17.2175 0.334833C26.3776 0.456373 33.7225 7.94818 33.6627 17.1089C33.6028 26.2697 26.1606 33.6649 16.9997 33.6667ZM15.333 5.33334L17.683 7.68334L15.0131 10.3636L15.0111 10.3543L12.561 11.9972H13.3858L13.383 12H23.8166L25.276 15.3333H17.9404V15.3306L8.60732 15.2743L6.99967 13.6667L15.333 5.33334ZM18.6663 27.6004L16.3163 25.2504L19.5411 22.0131L19.5434 22.0158L21.4964 20.6899L18.8953 20.9337H10.1306L8.70124 17.6004H16.0589V17.6056L25.3921 17.6595L26.9997 19.2671L18.6663 27.6004Z" fill="#2862FF"/>
</svg>
