<svg width="40" height="40" viewBox="0 0 40 40" fill="none" xmlns="http://www.w3.org/2000/svg">
<circle cx="20" cy="20" r="20" fill="#2862FF"/>
<path fill-rule="evenodd" clip-rule="evenodd" d="M19.9984 6.66813C12.6379 6.67621 6.67312 12.641 6.66504 20.0015C6.6665 27.3302 12.5827 33.284 19.9113 33.3318C27.2399 33.3797 33.2333 27.5038 33.3305 20.1757C33.4278 12.8476 27.5923 6.8147 20.265 6.66813H19.9984ZM18.1184 24.7881L19.9984 26.6681L26.6651 20.0015L19.9984 13.3348L18.1184 15.2148L20.295 17.3998L22.6506 18.6667H21.5569L21.5584 18.6681H13.3317V21.3348H20.0037L20.0035 21.3333H22.6506L20.2289 22.6771L20.2278 22.6706L18.1184 24.7881Z" fill="white"/>
</svg>
