<svg width="20" height="40" viewBox="0 0 20 40" fill="none" xmlns="http://www.w3.org/2000/svg">
<circle cx="20" cy="20" r="20" fill="#2862FF"/>
<path fill-rule="evenodd" clip-rule="evenodd" d="M6.66699 20C6.67508 27.3605 12.6399 33.3253 20.0003 33.3334C27.3291 33.3319 33.2828 27.4157 33.3307 20.0871C33.3786 12.7585 27.5027 6.76509 20.1746 6.66786C12.8464 6.57063 6.81357 12.4061 6.66699 19.7334V20ZM24.7857 21.8815L26.6657 20.0015L19.999 13.3348L13.3323 20.0015L15.2123 21.8815L17.3973 19.7049L18.6642 17.3492V18.4429L18.6657 18.4415V26.6681H21.3323V19.9961L21.3309 19.9964V17.3492L22.6746 19.771L22.6681 19.7721L24.7857 21.8815Z" fill="white"/>
</svg>
