<svg width="50" height="50" viewBox="0 0 50 50" fill="none" xmlns="http://www.w3.org/2000/svg">
<circle cx="25" cy="25" r="22.5" fill="#2862FF" stroke="white" stroke-width="5"/>
<path d="M27.8268 23.1536C26.2395 19.936 22.9257 17.7226 19.0948 17.7226C18.9116 17.7226 18.7295 17.7277 18.5488 17.7377C20.2501 16.2803 22.4604 15.4 24.8763 15.4C28.6664 15.4 31.9504 17.5665 33.557 20.7285L35.323 19.979L34.0536 30.3162L25.7347 24.0484L27.8268 23.1536Z" fill="white"/>
<path d="M22.1742 26.8464C23.7615 30.064 27.0753 32.2774 30.9062 32.2774C31.0894 32.2774 31.2714 32.2723 31.4521 32.2624C29.7509 33.7197 27.5406 34.6 25.1246 34.6C21.3346 34.6 18.0506 32.4335 16.444 29.2715L14.678 30.021L15.9474 19.6839L24.2663 25.9516L22.1742 26.8464Z" fill="#EDF0FB"/>
</svg>
