<svg xmlns="http://www.w3.org/2000/svg">
  <symbol id="home-active">
    <path fill-rule="evenodd" clip-rule="evenodd" d="M13.1 1.22474L22.1 8.2168C22.4 8.41657 22.5 8.71623 22.5 9.01589V20.0034C22.5 21.7015 21.2 23 19.5 23H16.5V12C16.5 11.4477 16.0523 11 15.5 11H9.5C8.94772 11 8.5 11.4477 8.5 12V23H5.5C3.8 23 2.5 21.7015 2.5 20.0034V9.01589C2.5 8.71623 2.6 8.41657 2.9 8.2168L11.9 1.22474C12.2 0.925085 12.7 0.925085 13.1 1.22474ZM10.5 23H14.5V13H10.5V23Z" fill="#2862FF"/>
  </symbol>
  <symbol id="recipients-active">
    <path fill-rule="evenodd" clip-rule="evenodd" d="M4.51594 7C4.51594 4.2 6.72471 2 9.53588 2C12.347 2 14.5558 4.2 14.5558 7C14.5558 9.8 12.347 12 9.53588 12C6.72471 12 4.51594 9.8 4.51594 7ZM18.5718 19V21C18.5718 21.6 18.1702 22 17.5678 22C16.9654 22 16.5638 21.6 16.5638 21V19C16.5638 17.3 15.2586 16 13.5518 16H5.51993C3.81315 16 2.50797 17.3 2.50797 19V21C2.50797 21.6 2.10638 22 1.50399 22C0.901594 22 0.5 21.6 0.5 21V19C0.5 16.2 2.70877 14 5.51993 14H13.5518C16.363 14 18.5718 16.2 18.5718 19ZM9.53588 10C7.8291 10 6.52392 8.7 6.52392 7C6.52392 5.3 7.8291 4 9.53588 4C11.2427 4 12.5478 5.3 12.5478 7C12.5478 8.7 11.2427 10 9.53588 10ZM20.7805 14.2C20.2785 14.1 19.6761 14.4 19.5757 14.9C19.4753 15.4 19.7765 16 20.2785 16.1C21.5837 16.4 22.4873 17.6 22.4873 19V21C22.4873 21.6 22.8889 22 23.4913 22C24.0937 22 24.4953 21.6 24.4953 21V19C24.5957 16.7 23.0897 14.7 20.7805 14.2ZM15.5598 2.9C15.7606 2.3 16.2626 2 16.7646 2.2C19.4753 2.8 21.0817 5.6 20.3789 8.4C19.9773 10.2 18.5718 11.5 16.7646 12H16.5638C16.0618 12 15.6602 11.7 15.5598 11.2C15.359 10.7 15.7606 10.1 16.2626 10C17.367 9.7 18.1702 8.9 18.4714 7.8C18.8729 6.1 17.869 4.5 16.2626 4.1C15.7606 4 15.4594 3.4 15.5598 2.9Z" fill="#2862FF"/>
  </symbol>
  <symbol id="gift-active">
    <path fill-rule="evenodd" clip-rule="evenodd" d="M8 8H11.5V11H4.5H3.5V8H8ZM4.5 4.5C4.5 5.0368 4.62085 5.54537 4.83682 6H2.5C1.94772 6 1.5 6.44772 1.5 7V12C1.5 12.5523 1.94772 13 2.5 13H3.5V22C3.5 22.5523 3.94772 23 4.5 23H12.5H20.5C21.0523 23 21.5 22.5523 21.5 22V13H22.5C23.0523 13 23.5 12.5523 23.5 12V7C23.5 6.44772 23.0523 6 22.5 6H20.163C20.379 5.54537 20.4999 5.0368 20.4999 4.5C20.4999 2.567 18.9328 1 16.9999 1C15.039 1 13.5784 2.16845 12.5611 4.01808C12.5405 4.05567 12.5201 4.09339 12.4999 4.13123C12.4798 4.09339 12.4594 4.05567 12.4387 4.01808C11.4214 2.16845 9.96086 1 8 1C6.067 1 4.5 2.567 4.5 4.5ZM13.8457 6H17C17.8284 6 18.5 5.32843 18.5 4.5C18.5 3.67157 17.8284 3 17 3C15.8983 3 15.0151 3.70655 14.3137 4.98192C14.1352 5.30638 13.9794 5.64992 13.8457 6ZM13.5 8V11H20.5H21.5V8H16.9999H13.5ZM11.1543 6H8C7.17157 6 6.5 5.32843 6.5 4.5C6.5 3.67157 7.17157 3 8 3C9.10164 3 9.98483 3.70655 10.6863 4.98192C10.8647 5.30638 11.0206 5.64992 11.1543 6ZM11.5 13H5.5V21H11.5V13ZM13.5 13H19.5V21H13.5V13Z" fill="#2862FF"/>
  </symbol>
  <symbol id="recipients">
    <path fill-rule="evenodd" clip-rule="evenodd" d="M4.51594 7C4.51594 4.2 6.72471 2 9.53588 2C12.347 2 14.5558 4.2 14.5558 7C14.5558 9.8 12.347 12 9.53588 12C6.72471 12 4.51594 9.8 4.51594 7ZM18.5718 19V21C18.5718 21.6 18.1702 22 17.5678 22C16.9654 22 16.5638 21.6 16.5638 21V19C16.5638 17.3 15.2586 16 13.5518 16H5.51993C3.81315 16 2.50797 17.3 2.50797 19V21C2.50797 21.6 2.10638 22 1.50399 22C0.901594 22 0.5 21.6 0.5 21V19C0.5 16.2 2.70877 14 5.51993 14H13.5518C16.363 14 18.5718 16.2 18.5718 19ZM9.53588 10C7.8291 10 6.52392 8.7 6.52392 7C6.52392 5.3 7.8291 4 9.53588 4C11.2427 4 12.5478 5.3 12.5478 7C12.5478 8.7 11.2427 10 9.53588 10ZM20.7805 14.2C20.2785 14.1 19.6761 14.4 19.5757 14.9C19.4753 15.4 19.7765 16 20.2785 16.1C21.5837 16.4 22.4873 17.6 22.4873 19V21C22.4873 21.6 22.8889 22 23.4913 22C24.0937 22 24.4953 21.6 24.4953 21V19C24.5957 16.7 23.0897 14.7 20.7805 14.2ZM15.5598 2.9C15.7606 2.3 16.2626 2 16.7646 2.2C19.4753 2.8 21.0817 5.6 20.3789 8.4C19.9773 10.2 18.5718 11.5 16.7646 12H16.5638C16.0618 12 15.6602 11.7 15.5598 11.2C15.359 10.7 15.7606 10.1 16.2626 10C17.367 9.7 18.1702 8.9 18.4714 7.8C18.8729 6.1 17.869 4.5 16.2626 4.1C15.7606 4 15.4594 3.4 15.5598 2.9Z" fill="#5E6788"/>
  </symbol>
  <symbol id="gift">
    <path fill-rule="evenodd" clip-rule="evenodd" d="M8 8H11.5V11H4.5H3.5V8H8ZM4.5 4.5C4.5 5.0368 4.62085 5.54537 4.83682 6H2.5C1.94772 6 1.5 6.44772 1.5 7V12C1.5 12.5523 1.94772 13 2.5 13H3.5V22C3.5 22.5523 3.94772 23 4.5 23H12.5H20.5C21.0523 23 21.5 22.5523 21.5 22V13H22.5C23.0523 13 23.5 12.5523 23.5 12V7C23.5 6.44772 23.0523 6 22.5 6H20.163C20.379 5.54537 20.4999 5.0368 20.4999 4.5C20.4999 2.567 18.9328 1 16.9999 1C15.039 1 13.5784 2.16845 12.5611 4.01808C12.5405 4.05567 12.5201 4.09339 12.4999 4.13123C12.4798 4.09339 12.4594 4.05567 12.4387 4.01808C11.4214 2.16845 9.96086 1 8 1C6.067 1 4.5 2.567 4.5 4.5ZM13.8457 6H17C17.8284 6 18.5 5.32843 18.5 4.5C18.5 3.67157 17.8284 3 17 3C15.8983 3 15.0151 3.70655 14.3137 4.98192C14.1352 5.30638 13.9794 5.64992 13.8457 6ZM13.5 8V11H20.5H21.5V8H16.9999H13.5ZM11.1543 6H8C7.17157 6 6.5 5.32843 6.5 4.5C6.5 3.67157 7.17157 3 8 3C9.10164 3 9.98483 3.70655 10.6863 4.98192C10.8647 5.30638 11.0206 5.64992 11.1543 6ZM11.5 13H5.5V21H11.5V13ZM13.5 13H19.5V21H13.5V13Z" fill="#5E6788"/>
  </symbol>
  <symbol id="account">
    <path fill-rule="evenodd" clip-rule="evenodd" d="M21.5 2H3.5C1.8 2 0.5 3.3 0.5 5V19C0.5 20.7 1.8 22 3.5 22H21.5C23.2 22 24.5 20.7 24.5 19V5C24.5 3.3 23.2 2 21.5 2ZM3.5 4H21.5C22.1 4 22.5 4.4 22.5 5V7H2.5V5C2.5 4.4 2.9 4 3.5 4ZM2.5 9H22.5V12H2.5V9ZM2.5 14V19C2.5 19.6 2.9 20 3.5 20H21.5C22.1 20 22.5 19.6 22.5 19V14H2.5Z" fill="#5E6788"/>
  </symbol>
  <symbol id="account-active">
    <path fill-rule="evenodd" clip-rule="evenodd" d="M21.5 2H3.5C1.8 2 0.5 3.3 0.5 5V19C0.5 20.7 1.8 22 3.5 22H21.5C23.2 22 24.5 20.7 24.5 19V5C24.5 3.3 23.2 2 21.5 2ZM3.5 4H21.5C22.1 4 22.5 4.4 22.5 5V7H2.5V5C2.5 4.4 2.9 4 3.5 4ZM2.5 9H22.5V12H2.5V9ZM2.5 14V19C2.5 19.6 2.9 20 3.5 20H21.5C22.1 20 22.5 19.6 22.5 19V14H2.5Z" fill="#2862FF"/>
  </symbol>
  <symbol id="home">
    <path fill-rule="evenodd" clip-rule="evenodd" d="M13.1 1.22474L22.1 8.2168C22.4 8.41657 22.5 8.71623 22.5 9.01589V20.0034C22.5 21.7015 21.2 23 19.5 23H16.5V12C16.5 11.4477 16.0523 11 15.5 11H9.5C8.94772 11 8.5 11.4477 8.5 12V23H5.5C3.8 23 2.5 21.7015 2.5 20.0034V9.01589C2.5 8.71623 2.6 8.41657 2.9 8.2168L11.9 1.22474C12.2 0.925085 12.7 0.925085 13.1 1.22474ZM10.5 23H14.5V13H10.5V23Z" fill="#5E6788"/>
  </symbol>
</svg>